0
SECTION
2
HEADER
9
$INSUNITS
70
4
9
$ACADVER
1
AC1014
9
$HANDSEED
5
FFFF
0
ENDSEC
0
SECTION
2
TABLES
0
TABLE
2
VPORT
5
8
100
AcDbSymbolTable
0
ENDTAB
0
TABLE
2
LTYPE
5
5
100
AcDbSymbolTable
0
LTYPE
5
14
100
AcDbSymbolTableRecord
100
AcDbLinetypeTableRecord
2
BYBLOCK
70
0
0
LTYPE
5
15
100
AcDbSymbolTableRecord
100
AcDbLinetypeTableRecord
2
BYLAYER
70
0
0
ENDTAB
0
TABLE
2
LAYER
5
2
100
AcDbSymbolTable
70
2
0
LAYER
5
50
100
AcDbSymbolTableRecord
100
AcDbLayerTableRecord
2
0
70
0
6
CONTINUOUS
0
ENDTAB
0
TABLE
2
STYLE
5
3
100
AcDbSymbolTable
70
1
0
STYLE
5
11
100
AcDbSymbolTableRecord
100
AcDbTextStyleTableRecord
2
STANDARD
70
0
0
ENDTAB
0
TABLE
2
VIEW
5
6
100
AcDbSymbolTable
70
0
0
ENDTAB
0
TABLE
2
UCS
5
7
100
AcDbSymbolTable
70
0
0
ENDTAB
0
TABLE
2
APPID
5
9
100
AcDbSymbolTable
70
2
0
APPID
5
12
100
AcDbSymbolTableRecord
100
AcDbRegAppTableRecord
2
ACAD
70
0
0
ENDTAB
0
TABLE
2
DIMSTYLE
5
A
100
AcDbSymbolTable
70
1
0
ENDTAB
0
TABLE
2
BLOCK_RECORD
5
1
100
AcDbSymbolTable
70
1
0
BLOCK_RECORD
5
1F
100
AcDbSymbolTableRecord
100
AcDbBlockTableRecord
2
*MODEL_SPACE
0
BLOCK_RECORD
5
1B
100
AcDbSymbolTableRecord
100
AcDbBlockTableRecord
2
*PAPER_SPACE
0
ENDTAB
0
ENDSEC
0
SECTION
2
BLOCKS
0
BLOCK
5
20
100
AcDbEntity
100
AcDbBlockBegin
2
*MODEL_SPACE
0
ENDBLK
5
21
100
AcDbEntity
100
AcDbBlockEnd
0
BLOCK
5
1C
100
AcDbEntity
100
AcDbBlockBegin
2
*PAPER_SPACE
0
ENDBLK
5
1D
100
AcDbEntity
100
AcDbBlockEnd
0
ENDSEC
0
SECTION
2
ENTITIES
0
CIRCLE
5
100
100
AcDbEntity
8
0
100
AcDbCircle
10
-142.9700423000001
20
-100.64239999999998
30
0
40
1.1500000000000021
0
CIRCLE
5
101
100
AcDbEntity
8
0
100
AcDbCircle
10
-42.970042300000024
20
5.2076714000000237
30
0
40
1.1500000000000021
0
CIRCLE
5
102
100
AcDbEntity
8
0
100
AcDbCircle
10
-242.97004230000005
20
5.2076714000000237
30
0
40
1.1499999999999844
0
CIRCLE
5
103
100
AcDbEntity
8
0
100
AcDbCircle
10
-291.14499996330426
20
-47.716895071195665
30
0
40
1.1499999999999844
0
CIRCLE
5
104
100
AcDbEntity
8
0
100
AcDbCircle
10
-242.97004230000005
20
-100.64239999999998
30
0
40
1.1499999999999844
0
CIRCLE
5
105
100
AcDbEntity
8
0
100
AcDbCircle
10
-42.97004230000006
20
-100.64239999999998
30
0
40
1.1500000000000021
0
CIRCLE
5
106
100
AcDbEntity
8
0
100
AcDbCircle
10
-142.9700423000001
20
5.2076714000000237
30
0
40
1.1500000000000021
0
CIRCLE
5
107
100
AcDbEntity
8
0
100
AcDbCircle
10
5.2049153633040888
20
-47.716895071195687
30
0
40
1.1499999999999844
0
LWPOLYLINE
5
108
100
AcDbEntity
8
0
100
AcDbPolyline
90
4
70
1
43
0.0
10
-271.41300000000001
20
-40.718299999999999
10
-271.41300000000001
20
-54.717599999999997
10
-257.41300000000001
20
-54.717599999999997
10
-257.41300000000001
20
-40.718299999999999
0
LWPOLYLINE
5
109
100
AcDbEntity
8
0
100
AcDbPolyline
90
4
70
1
43
0.0
10
-28.525400000000012
20
-21.668300000000002
10
-28.525400000000012
20
-35.667600000000007
10
-14.525900000000007
20
-35.667600000000007
10
-14.525900000000007
20
-21.668300000000002
0
LWPOLYLINE
5
110
100
AcDbEntity
8
0
100
AcDbPolyline
90
8
70
1
43
0.0
10
-36.625969999999995
20
-36.397100000000016
10
-31.050899999999992
20
-36.397100000000009
42
0.41421356237308982
10
-30.050899999999992
20
-35.397100000000009
10
-30.050899999999992
20
-21.897000000000002
42
0.41421356237308982
10
-31.050899999999988
20
-20.897000000000006
10
-36.625969999999995
20
-20.897000000000006
42
0.41421356237308982
10
-37.625969999999995
20
-21.897000000000006
10
-37.625969999999995
20
-35.397100000000009
42
0.4142135623730937
0
LWPOLYLINE
5
111
100
AcDbEntity
8
0
100
AcDbPolyline
90
8
70
1
43
0.0
10
-279.51407000000006
20
-55.448400000000021
10
-273.93900000000008
20
-55.448400000000014
42
0.41421356237308465
10
-272.93900000000002
20
-54.448400000000021
10
-272.93900000000002
20
-40.94830000000001
42
0.41421356237307683
10
-273.93900000000008
20
-39.94830000000001
10
-279.51407000000006
20
-39.94830000000001
42
0.41421356237310802
10
-280.51407000000006
20
-40.94830000000001
10
-280.51407000000006
20
-54.448400000000021
42
0.41421356237309509
0
LWPOLYLINE
5
112
100
AcDbEntity
8
0
100
AcDbPolyline
90
8
70
1
43
0.0
10
-203.32007000000002
20
-17.348510000000019
10
-197.74500000000003
20
-17.348510000000008
42
0.41421356237310542
10
-196.745
20
-16.348510000000008
10
-196.745
20
-2.8484100000000012
42
0.41421356237309337
10
-197.74500000000003
20
-1.8484100000000048
10
-203.32007000000002
20
-1.8484100000000048
42
0.41421356237307405
10
-204.32007000000002
20
-2.8484100000000057
10
-204.32007000000002
20
-16.348510000000008
42
0.41421356237307289
0
LWPOLYLINE
5
113
100
AcDbEntity
8
0
100
AcDbPolyline
90
8
70
1
43
0.0
10
-13.000399999999992
20
-21.917300000000001
10
-13.000399999999992
20
-35.417400000000001
42
0.41421356237309176
10
-12.000399999999994
20
-36.417400000000015
10
-6.4253299999999891
20
-36.417400000000001
42
0.4142135623730977
10
-5.4253299999999882
20
-35.417400000000001
10
-5.4253299999999882
20
-21.917299999999997
42
0.41421356237308982
10
-6.4253299999999864
20
-20.917300000000001
10
-12.000399999999992
20
-20.917300000000001
42
0.41421356237309176
0
LWPOLYLINE
5
114
100
AcDbEntity
8
0
100
AcDbPolyline
90
8
70
1
43
0.0
10
-88.193509999999989
20
-17.367340000000013
10
-82.618439999999978
20
-17.367340000000002
42
0.4142135623730937
10
-81.618439999999993
20
-16.367340000000002
10
-81.618439999999993
20
-2.8672399999999953
42
0.41421356237309337
10
-82.618439999999978
20
-1.8672399999999989
10
-88.193509999999989
20
-1.8672399999999989
42
0.41421356237309409
10
-89.193509999999989
20
-2.8672399999999998
10
-89.193509999999989
20
-16.367340000000002
42
0.41421356237309509
0
LWPOLYLINE
5
115
100
AcDbEntity
8
0
100
AcDbPolyline
90
8
70
1
43
0.0
10
-254.88630999999998
20
-55.467400000000012
10
-249.31124
20
-55.467400000000005
42
0.41421356237308465
10
-248.31124
20
-54.467400000000012
10
-248.31124
20
-40.967300000000002
42
0.41421356237307683
10
-249.31124
20
-39.967300000000002
10
-254.88630999999998
20
-39.967300000000002
42
0.41421356237310802
10
-255.88630999999998
20
-40.967300000000002
10
-255.88630999999998
20
-54.467400000000012
42
0.41421356237309509
0
LWPOLYLINE
5
116
100
AcDbEntity
8
0
100
AcDbPolyline
90
4
70
1
43
0.0
10
-9.7634100000000004
20
-40.718299999999999
10
-23.762900000000002
20
-40.718299999999999
10
-23.762900000000002
20
-54.717599999999997
10
-9.7634100000000004
20
-54.717599999999997
0
LWPOLYLINE
5
117
100
AcDbEntity
8
0
100
AcDbPolyline
90
4
70
1
43
0.0
10
-254.74400000000003
20
-59.768300000000004
10
-254.74400000000003
20
-73.767600000000016
10
-240.745
20
-73.767600000000016
10
-240.745
20
-59.768300000000004
0
LWPOLYLINE
5
118
100
AcDbEntity
8
0
100
AcDbPolyline
90
4
70
1
43
0.0
10
-69.294700000000006
20
-59.768300000000004
10
-83.293999999999997
20
-59.768300000000004
10
-83.293999999999997
20
-73.767600000000016
10
-69.294700000000006
20
-73.767600000000016
0
LWPOLYLINE
5
119
100
AcDbEntity
8
0
100
AcDbPolyline
90
4
70
1
43
0.0
10
-159.494
20
-59.768300000000004
10
-159.494
20
-73.767600000000016
10
-145.495
20
-73.767600000000016
10
-145.495
20
-59.768300000000004
0
LWPOLYLINE
5
120
100
AcDbEntity
8
0
100
AcDbPolyline
90
4
70
1
43
0.0
10
-178.54400000000001
20
-59.768300000000004
10
-178.54400000000001
20
-73.767600000000016
10
-164.54499999999999
20
-73.767600000000016
10
-164.54499999999999
20
-59.768300000000004
0
LWPOLYLINE
5
121
100
AcDbEntity
8
0
100
AcDbPolyline
90
4
70
1
43
0.0
10
-107.395
20
-73.767600000000016
10
-107.395
20
-59.768300000000004
10
-121.39400000000002
20
-59.768300000000004
10
-121.39400000000002
20
-73.767600000000016
0
LWPOLYLINE
5
122
100
AcDbEntity
8
0
100
AcDbPolyline
90
4
70
1
43
0.0
10
-35.669000000000004
20
-78.818299999999994
10
-35.669000000000004
20
-92.817599999999999
10
-21.669699999999999
20
-92.817599999999999
10
-21.669699999999999
20
-78.818299999999994
0
LWPOLYLINE
5
123
100
AcDbEntity
8
0
100
AcDbPolyline
90
4
70
1
43
0.0
10
-102.34400000000001
20
-59.768300000000004
10
-102.34400000000001
20
-73.767600000000016
10
-88.344700000000017
20
-73.767600000000016
10
-88.344700000000017
20
-59.768300000000004
0
LWPOLYLINE
5
124
100
AcDbEntity
8
0
100
AcDbPolyline
90
4
70
1
43
0.0
10
-45.194000000000003
20
-59.768300000000004
10
-45.194000000000003
20
-73.767600000000016
10
-31.194700000000001
20
-73.767600000000016
10
-31.194700000000001
20
-59.768300000000004
0
LWPOLYLINE
5
125
100
AcDbEntity
8
0
100
AcDbPolyline
90
4
70
1
43
0.0
10
-155.02000000000004
20
-78.818299999999994
10
-169.01900000000001
20
-78.818299999999994
10
-169.01900000000001
20
-92.817599999999999
10
-155.02000000000004
20
-92.817599999999999
0
LWPOLYLINE
5
126
100
AcDbEntity
8
0
100
AcDbPolyline
90
4
70
1
43
0.0
10
-50.244700000000009
20
-73.767600000000016
10
-50.244700000000009
20
-59.768300000000004
10
-64.244
20
-59.768300000000004
10
-64.244
20
-73.767600000000016
0
LWPOLYLINE
5
127
100
AcDbEntity
8
0
100
AcDbPolyline
90
4
70
1
43
0.0
10
-54.718999999999994
20
-78.818299999999994
10
-54.718999999999994
20
-92.817599999999999
10
-40.719700000000003
20
-92.817599999999999
10
-40.719700000000003
20
-78.818299999999994
0
LWPOLYLINE
5
128
100
AcDbEntity
8
0
100
AcDbPolyline
90
4
70
1
43
0.0
10
-278.55700000000002
20
-73.767600000000016
10
-264.55700000000002
20
-73.767600000000016
10
-264.55700000000002
20
-59.768300000000004
10
-278.55700000000002
20
-59.768300000000004
0
LWPOLYLINE
5
129
100
AcDbEntity
8
0
100
AcDbPolyline
90
4
70
1
43
0.0
10
-97.868300000000019
20
-78.818299999999994
10
-111.86900000000001
20
-78.818299999999994
10
-111.86900000000001
20
-92.817599999999999
10
-97.868300000000019
20
-92.817599999999999
0
LWPOLYLINE
5
130
100
AcDbEntity
8
0
100
AcDbPolyline
90
4
70
1
43
0.0
10
-235.69400000000002
20
-59.768300000000004
10
-235.69400000000002
20
-73.767600000000016
10
-221.69499999999999
20
-73.767600000000016
10
-221.69499999999999
20
-59.768300000000004
0
LWPOLYLINE
5
131
100
AcDbEntity
8
0
100
AcDbPolyline
90
4
70
1
43
0.0
10
-197.59400000000002
20
-73.767600000000016
10
-183.595
20
-73.767600000000016
10
-183.595
20
-59.768300000000004
10
-197.59400000000002
20
-59.768300000000004
0
LWPOLYLINE
5
132
100
AcDbEntity
8
0
100
AcDbPolyline
90
4
70
1
43
0.0
10
-59.769700000000007
20
-78.818299999999994
10
-73.768999999999991
20
-78.818299999999994
10
-73.768999999999991
20
-92.817599999999999
10
-59.769700000000007
20
-92.817599999999999
0
LWPOLYLINE
5
133
100
AcDbEntity
8
0
100
AcDbPolyline
90
4
70
1
43
0.0
10
-2.61965
20
-92.817599999999999
10
-2.61965
20
-78.818299999999994
10
-16.619199999999999
20
-78.818299999999994
10
-16.619199999999999
20
-92.817599999999999
0
LWPOLYLINE
5
134
100
AcDbEntity
8
0
100
AcDbPolyline
90
4
70
1
43
0.0
10
-216.64400000000001
20
-59.768300000000004
10
-216.64400000000001
20
-73.767600000000016
10
-202.64500000000001
20
-73.767600000000016
10
-202.64500000000001
20
-59.768300000000004
0
LWPOLYLINE
5
135
100
AcDbEntity
8
0
100
AcDbPolyline
90
4
70
1
43
0.0
10
-226.16900000000001
20
-92.817599999999999
10
-212.16999999999999
20
-92.817599999999999
10
-212.16999999999999
20
-78.818299999999994
10
-226.16900000000001
20
-78.818299999999994
0
LWPOLYLINE
5
136
100
AcDbEntity
8
0
100
AcDbPolyline
90
4
70
1
43
0.0
10
-231.22
20
-92.817599999999999
10
-231.22
20
-78.818299999999994
10
-245.21900000000002
20
-78.818299999999994
10
-245.21900000000002
20
-92.817599999999999
0
LWPOLYLINE
5
137
100
AcDbEntity
8
0
100
AcDbPolyline
90
4
70
1
43
0.0
10
-78.819699999999997
20
-92.817599999999999
10
-78.819699999999997
20
-78.818299999999994
10
-92.819000000000003
20
-78.818299999999994
10
-92.819000000000003
20
-92.817599999999999
0
LWPOLYLINE
5
138
100
AcDbEntity
8
0
100
AcDbPolyline
90
4
70
1
43
0.0
10
-130.91899999999998
20
-78.818299999999994
10
-130.91899999999998
20
-92.817599999999999
10
-116.91800000000001
20
-92.817599999999999
10
-116.91800000000001
20
-78.818299999999994
0
LWPOLYLINE
5
139
100
AcDbEntity
8
0
100
AcDbPolyline
90
4
70
1
43
0.0
10
-140.44399999999999
20
-59.768300000000004
10
-140.44399999999999
20
-73.767600000000016
10
-126.44500000000001
20
-73.767600000000016
10
-126.44500000000001
20
-59.768300000000004
0
LWPOLYLINE
5
140
100
AcDbEntity
8
0
100
AcDbPolyline
90
4
70
1
43
0.0
10
-269.32000000000005
20
-92.817599999999999
10
-269.32000000000005
20
-78.818299999999994
10
-283.31900000000007
20
-78.818299999999994
10
-283.31900000000007
20
-92.817599999999999
0
LWPOLYLINE
5
141
100
AcDbEntity
8
0
100
AcDbPolyline
90
4
70
1
43
0.0
10
-135.97000000000003
20
-78.818299999999994
10
-149.96899999999999
20
-78.818299999999994
10
-149.96899999999999
20
-92.817599999999999
10
-135.97000000000003
20
-92.817599999999999
0
LWPOLYLINE
5
142
100
AcDbEntity
8
0
100
AcDbPolyline
90
4
70
1
43
0.0
10
-193.12
20
-78.818299999999994
10
-207.11900000000003
20
-78.818299999999994
10
-207.11900000000003
20
-92.817599999999999
10
-193.12
20
-92.817599999999999
0
LWPOLYLINE
5
143
100
AcDbEntity
8
0
100
AcDbPolyline
90
4
70
1
43
0.0
10
-174.06999999999999
20
-78.818299999999994
10
-188.06900000000002
20
-78.818299999999994
10
-188.06900000000002
20
-92.817599999999999
10
-174.06999999999999
20
-92.817599999999999
0
LWPOLYLINE
5
144
100
AcDbEntity
8
0
100
AcDbPolyline
90
4
70
1
43
0.0
10
-264.26900000000001
20
-92.817599999999999
10
-250.27000000000001
20
-92.817599999999999
10
-250.27000000000001
20
-78.818299999999994
10
-264.26900000000001
20
-78.818299999999994
0
LWPOLYLINE
5
145
100
AcDbEntity
8
0
100
AcDbPolyline
90
4
70
1
43
0.0
10
-243.126
20
-35.667600000000007
10
-243.126
20
-21.668300000000002
10
-257.125
20
-21.668300000000002
10
-257.125
20
-35.667600000000007
0
LWPOLYLINE
5
146
100
AcDbEntity
8
0
100
AcDbPolyline
90
4
70
1
43
0.0
10
-216.93200000000004
20
-21.668300000000002
10
-230.93200000000002
20
-21.668300000000002
10
-230.93200000000002
20
-35.667600000000007
10
-216.93200000000004
20
-35.667600000000007
0
LWPOLYLINE
5
147
100
AcDbEntity
8
0
100
AcDbPolyline
90
4
70
1
43
0.0
10
-283.31900000000007
20
-35.667600000000007
10
-269.32000000000005
20
-35.667600000000007
10
-269.32000000000005
20
-21.668300000000002
10
-283.31900000000007
20
-21.668300000000002
0
LWPOLYLINE
5
148
100
AcDbEntity
8
0
100
AcDbPolyline
90
4
70
1
43
0.0
10
-140.732
20
-35.667600000000007
10
-140.732
20
-21.668300000000002
10
-154.73200000000003
20
-21.668300000000002
10
-154.73200000000003
20
-35.667600000000007
0
LWPOLYLINE
5
149
100
AcDbEntity
8
0
100
AcDbPolyline
90
4
70
1
43
0.0
10
-178.83199999999999
20
-35.667600000000007
10
-178.83199999999999
20
-21.668300000000002
10
-192.83199999999999
20
-21.668300000000002
10
-192.83199999999999
20
-35.667600000000007
0
LWPOLYLINE
5
150
100
AcDbEntity
8
0
100
AcDbPolyline
90
4
70
1
43
0.0
10
-116.63200000000003
20
-35.667600000000007
10
-102.63200000000001
20
-35.667600000000007
10
-102.63200000000001
20
-21.668300000000002
10
-116.63200000000003
20
-21.668300000000002
0
LWPOLYLINE
5
151
100
AcDbEntity
8
0
100
AcDbPolyline
90
4
70
1
43
0.0
10
-78.531499999999994
20
-21.668300000000002
10
-78.531499999999994
20
-35.667600000000007
10
-64.532200000000003
20
-35.667600000000007
10
-64.532200000000003
20
-21.668300000000002
0
LWPOLYLINE
5
152
100
AcDbEntity
8
0
100
AcDbPolyline
90
4
70
1
43
0.0
10
-240.745
20
-2.6182699999999981
10
-254.74400000000003
20
-2.6182700000000025
10
-254.74400000000003
20
-16.617800000000003
10
-240.745
20
-16.617800000000003
0
LWPOLYLINE
5
153
100
AcDbEntity
8
0
100
AcDbPolyline
90
4
70
1
43
0.0
10
-45.482199999999999
20
-35.667600000000007
10
-45.482199999999999
20
-21.668300000000002
10
-59.481499999999997
20
-21.668300000000002
10
-59.481499999999997
20
-35.667600000000007
0
LWPOLYLINE
5
154
100
AcDbEntity
8
0
100
AcDbPolyline
90
4
70
1
43
0.0
10
-31.194700000000001
20
-16.617800000000003
10
-31.194700000000001
20
-2.6182699999999981
10
-45.194000000000003
20
-2.6182700000000025
10
-45.194000000000003
20
-16.617800000000003
0
LWPOLYLINE
5
155
100
AcDbEntity
8
0
100
AcDbPolyline
90
4
70
1
43
0.0
10
-97.581500000000005
20
-21.668300000000002
10
-97.581500000000005
20
-35.667600000000007
10
-83.582200000000014
20
-35.667600000000007
10
-83.582200000000014
20
-21.668300000000002
0
LWPOLYLINE
5
156
100
AcDbEntity
8
0
100
AcDbPolyline
90
4
70
1
43
0.0
10
-55.007200000000005
20
-40.718299999999999
10
-69.006500000000003
20
-40.718299999999999
10
-69.006500000000003
20
-54.717599999999997
10
-55.007200000000005
20
-54.717599999999997
0
LWPOLYLINE
5
157
100
AcDbEntity
8
0
100
AcDbPolyline
90
4
70
1
43
0.0
10
-131.20699999999999
20
-40.718299999999999
10
-145.20700000000002
20
-40.718299999999999
10
-145.20700000000002
20
-54.717599999999997
10
-131.20699999999999
20
-54.717599999999997
0
LWPOLYLINE
5
158
100
AcDbEntity
8
0
100
AcDbPolyline
90
4
70
1
43
0.0
10
-112.15700000000001
20
-54.717599999999997
10
-112.15700000000001
20
-40.718299999999999
10
-126.15700000000004
20
-40.718299999999999
10
-126.15700000000004
20
-54.717599999999997
0
LWPOLYLINE
5
159
100
AcDbEntity
8
0
100
AcDbPolyline
90
4
70
1
43
0.0
10
-107.10700000000003
20
-54.717599999999997
10
-93.10720000000002
20
-54.717599999999997
10
-93.10720000000002
20
-40.718299999999999
10
-107.10700000000003
20
-40.718299999999999
0
LWPOLYLINE
5
160
100
AcDbEntity
8
0
100
AcDbPolyline
90
4
70
1
43
0.0
10
-164.25700000000003
20
-40.718299999999999
10
-164.25700000000003
20
-54.717599999999997
10
-150.25700000000001
20
-54.717599999999997
10
-150.25700000000001
20
-40.718299999999999
0
LWPOLYLINE
5
161
100
AcDbEntity
8
0
100
AcDbPolyline
90
4
70
1
43
0.0
10
-240.45699999999999
20
-40.718299999999999
10
-240.45699999999999
20
-54.717599999999997
10
-226.45700000000002
20
-54.717599999999997
10
-226.45700000000002
20
-40.718299999999999
0
LWPOLYLINE
5
162
100
AcDbEntity
8
0
100
AcDbPolyline
90
4
70
1
43
0.0
10
-49.956500000000005
20
-40.718299999999999
10
-49.956500000000005
20
-54.717599999999997
10
-35.9572
20
-54.717599999999997
10
-35.9572
20
-40.718299999999999
0
LWPOLYLINE
5
163
100
AcDbEntity
8
0
100
AcDbPolyline
90
4
70
1
43
0.0
10
-221.40700000000004
20
-40.718299999999999
10
-221.40700000000004
20
-54.717599999999997
10
-207.40700000000004
20
-54.717599999999997
10
-207.40700000000004
20
-40.718299999999999
0
LWPOLYLINE
5
164
100
AcDbEntity
8
0
100
AcDbPolyline
90
4
70
1
43
0.0
10
-88.0565
20
-54.717599999999997
10
-74.057199999999995
20
-54.717599999999997
10
-74.057199999999995
20
-40.718299999999999
10
-88.0565
20
-40.718299999999999
0
LWPOLYLINE
5
165
100
AcDbEntity
8
0
100
AcDbPolyline
90
4
70
1
43
0.0
10
-169.30700000000002
20
-40.718299999999999
10
-183.30700000000004
20
-40.718299999999999
10
-183.30700000000004
20
-54.717599999999997
10
-169.30700000000002
20
-54.717599999999997
0
LWPOLYLINE
5
166
100
AcDbEntity
8
0
100
AcDbPolyline
90
4
70
1
43
0.0
10
-7.3821599999999998
20
-59.768300000000004
10
-21.381700000000002
20
-59.768300000000004
10
-21.381700000000002
20
-73.767600000000016
10
-7.3821599999999998
20
-73.767600000000016
0
LWPOLYLINE
5
167
100
AcDbEntity
8
0
100
AcDbPolyline
90
4
70
1
43
0.0
10
-202.35700000000003
20
-40.718299999999999
10
-202.35700000000003
20
-54.717599999999997
10
-188.357
20
-54.717599999999997
10
-188.357
20
-40.718299999999999
0
LWPOLYLINE
5
168
100
AcDbEntity
8
0
100
AcDbPolyline
90
4
70
1
43
0.0
10
-159.78200000000001
20
-35.667600000000007
10
-159.78200000000001
20
-21.668300000000002
10
-173.78200000000004
20
-21.668300000000002
10
-173.78200000000004
20
-35.667600000000007
0
LWPOLYLINE
5
169
100
AcDbEntity
8
0
100
AcDbPolyline
90
4
70
1
43
0.0
10
-211.88200000000001
20
-35.667600000000007
10
-197.88200000000003
20
-35.667600000000007
10
-197.88200000000003
20
-21.668300000000002
10
-211.88200000000001
20
-21.668300000000002
0
LWPOLYLINE
5
170
100
AcDbEntity
8
0
100
AcDbPolyline
90
4
70
1
43
0.0
10
-121.68200000000002
20
-21.668300000000002
10
-135.68200000000004
20
-21.668300000000002
10
-135.68200000000004
20
-35.667600000000007
10
-121.68200000000002
20
-35.667600000000007
0
LWPOLYLINE
5
171
100
AcDbEntity
8
0
100
AcDbPolyline
90
4
70
1
43
0.0
10
-216.93200000000004
20
-16.617800000000003
10
-216.93200000000004
20
-2.6182699999999981
10
-230.93200000000002
20
-2.6182700000000025
10
-230.93200000000002
20
-16.617800000000003
0
LWPOLYLINE
5
172
100
AcDbEntity
8
0
100
AcDbPolyline
90
4
70
1
43
0.0
10
-69.006500000000003
20
-2.6182700000000025
10
-69.006500000000003
20
-16.617800000000003
10
-55.007200000000005
20
-16.617800000000003
10
-55.007200000000005
20
-2.6182699999999981
0
LWPOLYLINE
5
173
100
AcDbEntity
8
0
100
AcDbPolyline
90
4
70
1
43
0.0
10
-149.96899999999999
20
-2.6182699999999981
10
-149.96899999999999
20
-16.617800000000003
10
-135.97000000000003
20
-16.617800000000003
10
-135.97000000000003
20
-2.6182699999999981
0
LWPOLYLINE
5
174
100
AcDbEntity
8
0
100
AcDbPolyline
90
81
70
1
43
0.0
10
-11.654450000000018
20
-95.342399999999998
10
-25.435988260161047
20
-95.342399999999998
42
0.14067396022346598
10
-27.615776180253611
20
-95.968060087847519
42
-0.019406915878912637
10
-27.872314846247541
20
-96.115018801815054
42
0.038114164726634224
10
-28.334388017567377
20
-96.536888188976349
42
-0.20691393242675499
10
-30.891444244769488
20
-97.642399999999952
10
-31.267624558646663
20
-97.642399999999995
42
0.19891236737965853
10
-34.173833429323359
20
-98.846191129323259
10
-37.854119136320833
20
-102.5264768363207
42
-0.19891236737965962
10
-40.548195972641558
20
-103.64239999999994
10
-45.391888627358583
20
-103.64239999999994
42
-0.19891236737965096
10
-48.085965463679329
20
-102.52647683632068
10
-51.854119136320776
20
-98.75832316367925
42
0.19891236737966755
10
-54.548195972641537
20
-97.642399999999995
10
-131.39188862735861
20
-97.642399999999995
42
0.19891236737965834
10
-134.08596546367934
20
-98.758323163679222
10
-137.85411913632086
20
-102.5264768363207
42
-0.19891236737964921
10
-140.54819597264159
20
-103.64239999999994
10
-145.39188862735861
20
-103.64239999999994
42
-0.19891236737965004
10
-148.08596546367934
20
-102.52647683632068
10
-151.8541191363208
20
-98.758323163679208
42
0.19891236737965012
10
-154.54819597264154
20
-97.642399999999981
10
-231.39188862735861
20
-97.642399999999981
42
0.1989123673796547
10
-234.08596546367934
20
-98.758323163679222
10
-237.85411913632086
20
-102.5264768363207
42
-0.19891236737965293
10
-240.54819597264159
20
-103.64239999999994
10
-245.39188862735858
20
-103.64239999999994
42
-0.19891236737965476
10
-248.08596546367934
20
-102.52647683632068
10
-251.85411913632083
20
-98.758323163679222
42
0.19891236737966539
10
-254.54819597264159
20
-97.642399999999995
10
-284.33500000000015
20
-97.642399999999981
42
-0.41421356237309509
10
-288.14500000000015
20
-93.832399999999978
10
-288.14500000000015
20
-59.295517972641434
42
0.19891236737965681
10
-289.26092316367942
20
-56.601441136320709
10
-293.02907676292926
20
-52.833287537070923
42
-0.1989123673796723
10
-294.14499992660853
20
-50.139210700750112
10
-294.14499992660842
20
-45.294579441641247
42
-0.1989123673796579
10
-293.02907676292921
20
-42.600502605320543
10
-289.26092316367948
20
-38.832349006070828
42
0.19891236737966503
10
-288.14500000000015
20
-36.138272169750046
10
-288.14500000000015
20
-1.6023285999999546
42
-0.41421356237309465
10
-284.33500000000015
20
2.2076714000000486
10
-254.54819597264162
20
2.2076714000000357
42
0.19891236737965221
10
-251.85411913632089
20
3.3235945636792845
10
-248.08596546367937
20
7.0917482363207638
42
-0.19891236737965176
10
-245.39188862735864
20
8.2076714000000095
10
-240.54819597264171
20
8.207671400000061
42
-0.1989123673796579
10
-237.85411913632095
20
7.0917482363208064
10
-234.08596546367937
20
3.3235945636792632
42
0.19891236737966
10
-231.3918886273587
20
2.2076714000000561
10
-154.54819597264159
20
2.2076714000000299
42
0.19891236737965637
10
-151.85411913632083
20
3.323594563679289
10
-148.08596546367934
20
7.0917482363207629
42
-0.19891236737965684
10
-145.39188862735858
20
8.2076714000000095
10
-140.54819597264168
20
8.2076714000000308
42
-0.19891236737965962
10
-137.85411913632095
20
7.0917482363207887
10
-134.08596546367937
20
3.3235945636792663
42
0.19891236737965914
10
-131.39188862735864
20
2.2076714000000277
10
-54.548195972641558
20
2.2076714000000224
42
0.1989123673796577
10
-51.854119136320818
20
3.3235945636792668
10
-48.085965463679315
20
7.0917482363207798
42
-0.1989123673796564
10
-45.391888627358583
20
8.2076714000000273
10
-40.548195972641651
20
8.2076714000000379
42
-0.19891236737965617
10
-37.854119136320918
20
7.0917482363208064
10
-34.085965463679322
20
3.3235945636792534
42
0.19891236737965856
10
-31.391888627358572
20
2.2076714000000224
10
-1.6050846000000265
20
2.2076714000000202
42
-0.41421356237309592
10
2.2049153999999764
20
-1.6023285999999892
10
2.2049153999999698
20
-36.138272169750103
42
0.19891236737965939
10
3.3208385636792399
20
-38.832349006070864
10
7.088992162928955
20
-42.60050260532055
42
-0.19891236737965798
10
8.2049153266082229
20
-45.294579441641254
10
8.2049153266082886
20
-50.139210700750105
42
-0.19891236737965973
10
7.0889921629290491
20
-52.833287537070895
10
3.3208385636792137
20
-56.601441136320759
42
0.1989123673796562
10
2.2049153999999662
20
-59.295517972641498
10
2.2049153999999604
20
-93.832399999999993
42
-0.41421356237309509
10
-1.6050846000000418
20
-97.642399999999995
10
-6.1538123276060643
20
-97.642399999999995
42
-0.14928695613214818
10
-8.2823094499908017
20
-96.992399999999961
42
0.012224240250476011
10
-8.4392983610016294
20
-96.892146118400362
42
0.22843080938097624
0
ENDSEC
0
SECTION
2
OBJECTS
0
DICTIONARY
5
C
100
AcDbDictionary
3
ACAD_GROUP
350
D
3
ACAD_MLINESTYLE
350
17
0
DICTIONARY
5
D
100
AcDbDictionary
0
DICTIONARY
5
1A
330
C
100
AcDbDictionary
0
DICTIONARY
5
17
100
AcDbDictionary
0
ENDSEC
0
EOF
