0
SECTION
2
HEADER
9
$INSUNITS
70
4
9
$ACADVER
1
AC1014
9
$HANDSEED
5
FFFF
0
ENDSEC
0
SECTION
2
TABLES
0
TABLE
2
VPORT
5
8
100
AcDbSymbolTable
0
ENDTAB
0
TABLE
2
LTYPE
5
5
100
AcDbSymbolTable
0
LTYPE
5
14
100
AcDbSymbolTableRecord
100
AcDbLinetypeTableRecord
2
BYBLOCK
70
0
0
LTYPE
5
15
100
AcDbSymbolTableRecord
100
AcDbLinetypeTableRecord
2
BYLAYER
70
0
0
ENDTAB
0
TABLE
2
LAYER
5
2
100
AcDbSymbolTable
70
2
0
LAYER
5
50
100
AcDbSymbolTableRecord
100
AcDbLayerTableRecord
2
0
70
0
6
CONTINUOUS
0
ENDTAB
0
TABLE
2
STYLE
5
3
100
AcDbSymbolTable
70
1
0
STYLE
5
11
100
AcDbSymbolTableRecord
100
AcDbTextStyleTableRecord
2
STANDARD
70
0
0
ENDTAB
0
TABLE
2
VIEW
5
6
100
AcDbSymbolTable
70
0
0
ENDTAB
0
TABLE
2
UCS
5
7
100
AcDbSymbolTable
70
0
0
ENDTAB
0
TABLE
2
APPID
5
9
100
AcDbSymbolTable
70
2
0
APPID
5
12
100
AcDbSymbolTableRecord
100
AcDbRegAppTableRecord
2
ACAD
70
0
0
ENDTAB
0
TABLE
2
DIMSTYLE
5
A
100
AcDbSymbolTable
70
1
0
ENDTAB
0
TABLE
2
BLOCK_RECORD
5
1
100
AcDbSymbolTable
70
1
0
BLOCK_RECORD
5
1F
100
AcDbSymbolTableRecord
100
AcDbBlockTableRecord
2
*MODEL_SPACE
0
BLOCK_RECORD
5
1B
100
AcDbSymbolTableRecord
100
AcDbBlockTableRecord
2
*PAPER_SPACE
0
ENDTAB
0
ENDSEC
0
SECTION
2
BLOCKS
0
BLOCK
5
20
100
AcDbEntity
100
AcDbBlockBegin
2
*MODEL_SPACE
0
ENDBLK
5
21
100
AcDbEntity
100
AcDbBlockEnd
0
BLOCK
5
1C
100
AcDbEntity
100
AcDbBlockBegin
2
*PAPER_SPACE
0
ENDBLK
5
1D
100
AcDbEntity
100
AcDbBlockEnd
0
ENDSEC
0
SECTION
2
ENTITIES
0
LWPOLYLINE
5
100
100
AcDbEntity
8
0
100
AcDbPolyline
90
54
70
1
43
0.0
10
-280.93799999999999
20
-64.24260000000001
10
-278.55702441406015
20
-64.24260000000001
10
-278.55702441406015
20
-65.64929389648016
10
-280.97112248400668
20
-65.64929389648016
42
0.41421356237312884
10
-281.97112248400674
20
-66.64929389648016
10
-281.97112248400674
20
-72.76800610351016
42
0.41421356237312101
10
-280.97112248400668
20
-73.768006103510146
10
-265.55702441405975
20
-73.768006103510061
42
0.0071251732020948411
10
-265.52852806166135
20
-73.767600000000016
10
-264.55700000000007
20
-73.767600000000016
10
-264.55700000000007
20
-73.168199999999999
10
-263.75599999999997
20
-73.168199999999999
10
-263.75599999999997
20
-60.367700000000006
10
-264.55700000000007
20
-60.367700000000006
10
-264.55700000000007
20
-59.768300000000004
10
-264.55702441405981
20
-59.768300000000004
10
-264.55702441405992
20
-55.717987792969851
42
-0.41421356237306384
10
-263.55702441405975
20
-54.717987792969858
10
-256.97526782226026
20
-54.71798779296995
42
-0.4142135623730977
10
-255.97526782226038
20
-55.717987792969865
42
0.41421356237312362
10
-254.97526782226009
20
-56.717987792969865
10
-249.97526782226009
20
-56.717987792969609
42
0.41421356237308726
10
-248.97526782226012
20
-55.717987792969851
42
-0.41421356237309509
10
-247.97526782226018
20
-54.717987792969922
10
-246.50701831054008
20
-54.717987792969971
42
0.0069626734302333706
10
-246.47917166699781
20
-54.717599999999997
10
-245.50700000000009
20
-54.717599999999997
10
-245.50700000000009
20
-54.118200000000023
10
-244.70600000000005
20
-54.118200000000023
10
-244.70600000000005
20
-41.317700000000002
10
-245.50700000000009
20
-41.317700000000002
10
-245.50700000000009
20
-40.718300000000013
10
-247.97526782226018
20
-40.718300000000013
10
-247.97526782226018
20
-40.717912207030139
42
-0.41421356237309509
10
-248.97526782226015
20
-39.717912207030167
42
0.4142135623730625
10
-249.97526782226009
20
-38.717912207030409
10
-254.97526782226009
20
-38.717912207030153
42
0.41421356237312235
10
-255.97526782226032
20
-39.717912207030153
42
-0.4142135623730977
10
-256.97526782226026
20
-40.717912207030125
10
-256.97526782226026
20
-40.718300000000013
10
-271.41300000000001
20
-40.718300000000013
10
-271.41300000000007
20
-40.7179
10
-271.9063137165133
20
-40.717899999999929
42
-0.39817337142952258
10
-272.85146844064622
20
-39.719605847192121
42
0.41421356237312101
10
-273.85166913394409
20
-38.719806580775618
10
-278.85166903322943
20
-38.720810147978717
42
0.41421356237308726
10
-279.85146829964583
20
-39.72101084127609
10
-279.85124438476026
20
-41.836693896480163
10
-280.04997991227259
20
-41.836650485504819
10
-280.04997991227265
20
-41.836693896480163
10
-280.85124438476032
20
-41.83669389648017
42
0.41421356237312884
10
-281.85124438476032
20
-42.83669389648017
10
-281.85124438476032
20
-47.83669389648017
42
0.38899433359399932
10
-280.93799999999999
20
-48.832923520223773
0
LWPOLYLINE
5
101
100
AcDbEntity
8
0
100
AcDbPolyline
90
40
70
1
43
0.0
10
-6.0877785034103837
20
-21.668300000000009
10
-6.0877785034104122
20
-20.66800000000006
42
0.41421356237309637
10
-7.0877785034104024
20
-19.668000000000074
10
-12.087778503410398
20
-19.66800000000001
42
0.41421356237312756
10
-13.087778503410501
20
-20.668000000000049
42
-0.41421356237308915
10
-14.087778503410366
20
-21.66799999999995
10
-28.963755065910348
20
-21.66800000000017
42
-0.41421356237312101
10
-29.96375506591037
20
-20.66800000000006
42
0.41421356237309637
10
-30.963755065910341
20
-19.668000000000085
10
-35.96375506591032
20
-19.668000000000042
42
0.42115695311439716
10
-36.963755065910419
20
-20.692343935399037
42
-0.36613543582022395
10
-37.80964098939647
20
-21.668300000000009
10
-40.4315
20
-21.668300000000009
10
-40.4315
20
-22.267699999999987
10
-41.232300000000002
20
-22.267699999999987
10
-41.232300000000002
20
-35.068300000000008
10
-40.4315
20
-35.068300000000008
10
-40.4315
20
-35.667599999999986
10
-39.576286076506953
20
-35.667599999999986
42
0.040998566789599317
10
-39.413116463340344
20
-35.681001967699565
10
-37.963755065910334
20
-35.681001967699551
42
-0.41421356237309509
10
-36.963755065910327
20
-36.681001967699558
42
0.41421356237308854
10
-35.963755065910334
20
-37.681001967699558
10
-30.963755065910341
20
-37.681001967699558
42
0.41421356237309243
10
-29.963755065910345
20
-36.681001967699558
42
-0.41421356237308726
10
-28.963755065910377
20
-35.681001967699558
10
-14.087778503410391
20
-35.681001967699558
42
-0.4142135623730937
10
-13.087778503410396
20
-36.681001967699551
42
0.41421356237309698
10
-12.087778503410394
20
-37.681001967699558
10
-7.0877785034103979
20
-37.681001967699558
42
0.41421356237309309
10
-6.0877785034103971
20
-36.681001967699558
10
-6.0877785034103837
20
-35.681001967699558
10
-6.0008110351504129
20
-35.681001967699565
42
0.040998566789595917
10
-5.8376414219837969
20
-35.667599999999986
10
-5.0009100000000029
20
-35.667599999999986
10
-5.000910000000002
20
-35.068300000000008
10
-4.200280000000002
20
-35.068300000000008
10
-4.200280000000002
20
-22.267699999999987
10
-5.000910000000002
20
-22.267699999999987
10
-5.000910000000002
20
-21.668300000000009
0
LWPOLYLINE
5
102
100
AcDbEntity
8
0
100
AcDbPolyline
90
36
70
1
43
0.0
10
-250.26949999999999
20
-79.417700000000025
10
-250.26949999999999
20
-77.817993896480061
42
0.4142135623730977
10
-251.26949999999997
20
-76.817993896480075
10
-257.3565239257801
20
-76.817993896480132
42
0.4142135623731471
10
-258.35652392577987
20
-77.817993896480075
42
-0.41421356237309243
10
-259.35652392577998
20
-78.817993896479962
10
-274.23250048828021
20
-78.817993896480175
42
-0.41421356237309243
10
-275.2325004882801
20
-77.817993896480061
42
0.41421356237306117
10
-276.2325004882801
20
-76.817993896480075
10
-282.31956713866998
20
-76.817993896480075
42
0.41421356237313145
10
-283.31956713866998
20
-77.817993896480061
10
-283.31956713867015
20
-79.417700000000025
10
-284.12000000000006
20
-79.417700000000025
10
-284.12000000000006
20
-92.218199999999968
10
-283.31900000000007
20
-92.218199999999968
10
-283.31900000000007
20
-92.817600000000027
10
-282.34763202430264
20
-92.817600000000027
42
0.0070172579528232108
10
-282.31956713866998
20
-92.817993896480019
10
-282.23250048828004
20
-92.817993896480061
10
-282.2325004882801
20
-93.817993896480061
42
0.41421356237305862
10
-281.2325004882801
20
-94.817993896480061
10
-276.2325004882801
20
-94.817993896480047
42
0.41421356237307944
10
-275.2325004882801
20
-93.817993896480061
42
-0.41421356237310542
10
-274.23250048828004
20
-92.817993896480061
10
-259.35652392577987
20
-92.817993896480075
42
-0.41421356237309509
10
-258.35652392577992
20
-93.817993896480061
42
0.41421356237310542
10
-257.35652392577992
20
-94.817993896480033
10
-252.3565239257799
20
-94.817993896480047
42
0.41421356237312629
10
-251.35652392577987
20
-93.817993896480061
10
-251.35652392577992
20
-92.817993896480061
10
-251.26949999999999
20
-92.817993896480061
42
0.00701725795248892
10
-251.24143511436614
20
-92.817600000000027
10
-250.27000000000001
20
-92.817600000000027
10
-250.27000000000001
20
-92.218199999999968
10
-249.47000000000003
20
-92.218199999999968
10
-249.47000000000003
20
-79.417700000000025
0
LWPOLYLINE
5
103
100
AcDbEntity
8
0
100
AcDbPolyline
90
12
70
1
43
0.0
10
-81.851139150596296
20
-9.1171199999999963
10
-81.851139150596296
20
-1.6152939959450481
42
0.41448242501512406
10
-82.85113915059631
20
-0.61567411675927453
10
-88.969939150596304
20
-0.61800000000007571
42
0.41421356237309437
10
-89.969939150596304
20
-1.6180000000000483
10
-89.96993915059619
20
-17.615293995969061
42
0.4142135623730937
10
-88.96993915059619
20
-18.615293995969054
10
-82.85113915059631
20
-18.615293995969061
42
0.4142135623730937
10
-81.85113915059631
20
-17.615293995969061
10
-81.851139150596296
20
-11.917299999999996
10
-81.850699999999975
20
-11.917299999999994
10
-81.850699999999975
20
-9.1171199999999963
0
CIRCLE
5
104
100
AcDbEntity
8
0
100
AcDbCircle
10
-242.97004229999999
20
5.2076714000000068
30
0
40
1.1499999999999844
0
LWPOLYLINE
5
105
100
AcDbEntity
8
0
100
AcDbPolyline
90
12
70
1
43
0.0
10
-69.006500000000003
20
-16.617800000000006
10
-55.007200000000005
20
-16.617800000000006
10
-55.007200000000005
20
-16.018299999999996
10
-54.206400000000002
20
-16.018299999999996
10
-54.206400000000002
20
-3.2177199999999928
10
-55.007200000000005
20
-3.2177199999999928
10
-55.007200000000005
20
-2.6182700000000025
10
-69.006500000000003
20
-2.6182700000000025
10
-69.006500000000003
20
-3.2177199999999928
10
-69.807299999999998
20
-3.2177199999999928
10
-69.807299999999998
20
-16.018299999999996
10
-69.006500000000003
20
-16.018299999999996
0
LWPOLYLINE
5
106
100
AcDbEntity
8
0
100
AcDbPolyline
90
12
70
1
43
0.0
10
-22.182300000000001
20
-60.367700000000006
10
-22.182300000000001
20
-73.168199999999999
10
-21.381700000000006
20
-73.168199999999999
10
-21.381700000000006
20
-73.767600000000016
10
-7.3821599999999954
20
-73.767600000000016
10
-7.3821600000000043
20
-73.168199999999999
10
-6.5815300000000043
20
-73.168199999999999
10
-6.5815300000000043
20
-60.367700000000006
10
-7.3821600000000043
20
-60.367700000000006
10
-7.3821600000000043
20
-59.768300000000004
10
-21.381700000000006
20
-59.768300000000004
10
-21.381700000000006
20
-60.367700000000006
0
LWPOLYLINE
5
107
100
AcDbEntity
8
0
100
AcDbPolyline
90
12
70
1
43
0.0
10
-97.581500000000005
20
-22.267699999999987
10
-98.382300000000015
20
-22.267699999999987
10
-98.382300000000015
20
-35.068300000000008
10
-97.581500000000005
20
-35.068300000000008
10
-97.581500000000005
20
-35.667599999999986
10
-83.582200000000014
20
-35.667599999999986
10
-83.582200000000014
20
-35.068300000000008
10
-82.781400000000005
20
-35.068300000000008
10
-82.781400000000005
20
-22.267699999999987
10
-83.582200000000014
20
-22.267699999999987
10
-83.582200000000014
20
-21.668300000000009
10
-97.581500000000005
20
-21.668300000000009
0
LWPOLYLINE
5
108
100
AcDbEntity
8
0
100
AcDbPolyline
90
12
70
1
43
0.0
10
-117.43200000000002
20
-22.267699999999987
10
-117.43200000000002
20
-35.068300000000008
10
-116.63200000000003
20
-35.068300000000008
10
-116.63200000000003
20
-35.667599999999986
10
-102.63200000000001
20
-35.667599999999986
10
-102.63200000000001
20
-35.068300000000008
10
-101.83100000000003
20
-35.068300000000008
10
-101.83100000000003
20
-22.267699999999987
10
-102.63200000000001
20
-22.267699999999987
10
-102.63200000000001
20
-21.668300000000009
10
-116.63200000000003
20
-21.668300000000009
10
-116.63200000000003
20
-22.267699999999987
0
LWPOLYLINE
5
109
100
AcDbEntity
8
0
100
AcDbPolyline
90
12
70
1
43
0.0
10
-135.97000000000003
20
-79.417700000000025
10
-135.97000000000003
20
-78.818299999999994
10
-149.96900000000005
20
-78.818299999999994
10
-149.96900000000005
20
-79.417700000000025
10
-150.77000000000004
20
-79.417700000000025
10
-150.77000000000004
20
-92.218199999999968
10
-149.96900000000005
20
-92.218199999999968
10
-149.96900000000005
20
-92.817600000000027
10
-135.97000000000003
20
-92.817600000000027
10
-135.97000000000003
20
-92.218199999999968
10
-135.17000000000002
20
-92.218199999999968
10
-135.17000000000002
20
-79.417700000000025
0
LWPOLYLINE
5
110
100
AcDbEntity
8
0
100
AcDbPolyline
90
12
70
1
43
0.0
10
-168.50599999999997
20
-54.118200000000023
10
-168.50599999999997
20
-41.317700000000002
10
-169.30700000000004
20
-41.317700000000002
10
-169.30700000000004
20
-40.718300000000013
10
-183.30700000000007
20
-40.718300000000013
10
-183.30700000000007
20
-41.317700000000002
10
-184.10700000000008
20
-41.317700000000002
10
-184.10700000000008
20
-54.118200000000023
10
-183.30700000000007
20
-54.118200000000023
10
-183.30700000000007
20
-54.717599999999997
10
-169.30700000000004
20
-54.717599999999997
10
-169.30700000000004
20
-54.118200000000023
0
LWPOLYLINE
5
111
100
AcDbEntity
8
0
100
AcDbPolyline
90
12
70
1
43
0.0
10
-93.10720000000002
20
-40.718300000000013
10
-107.10700000000004
20
-40.718300000000013
10
-107.10700000000004
20
-41.317700000000002
10
-107.90700000000001
20
-41.317700000000002
10
-107.90700000000001
20
-54.118200000000023
10
-107.10700000000004
20
-54.118200000000023
10
-107.10700000000004
20
-54.717599999999997
10
-93.10720000000002
20
-54.717599999999997
10
-93.10720000000002
20
-54.118200000000023
10
-92.306399999999996
20
-54.118200000000023
10
-92.306399999999996
20
-41.317700000000002
10
-93.10720000000002
20
-41.317700000000002
0
LWPOLYLINE
5
112
100
AcDbEntity
8
0
100
AcDbPolyline
90
12
70
1
43
0.0
10
-230.93199999999999
20
-16.018299999999996
10
-230.93199999999999
20
-16.617800000000006
10
-216.93200000000004
20
-16.617800000000006
10
-216.93200000000004
20
-16.018299999999996
10
-216.13100000000003
20
-16.018299999999996
10
-216.13100000000003
20
-3.2177199999999928
10
-216.93200000000004
20
-3.2177199999999928
10
-216.93200000000004
20
-2.6182700000000025
10
-230.93199999999999
20
-2.6182700000000025
10
-230.93199999999999
20
-3.2177199999999928
10
-231.73200000000006
20
-3.2177199999999928
10
-231.73200000000006
20
-16.018299999999996
0
LWPOLYLINE
5
113
100
AcDbEntity
8
0
100
AcDbPolyline
90
12
70
1
43
0.0
10
-178.54400000000004
20
-60.367700000000006
10
-179.345
20
-60.367700000000006
10
-179.345
20
-73.168199999999999
10
-178.54400000000004
20
-73.168199999999999
10
-178.54400000000004
20
-73.767600000000016
10
-164.54500000000007
20
-73.767600000000016
10
-164.54500000000007
20
-73.168199999999999
10
-163.74500000000009
20
-73.168199999999999
10
-163.74500000000009
20
-60.367700000000006
10
-164.54500000000007
20
-60.367700000000006
10
-164.54500000000007
20
-59.768300000000004
10
-178.54400000000004
20
-59.768300000000004
0
LWPOLYLINE
5
114
100
AcDbEntity
8
0
100
AcDbPolyline
90
12
70
1
43
0.0
10
-178.83200000000005
20
-35.068300000000008
10
-178.03100000000001
20
-35.068300000000008
10
-178.03100000000001
20
-22.267699999999987
10
-178.83200000000005
20
-22.267699999999987
10
-178.83200000000005
20
-21.668300000000009
10
-192.83199999999999
20
-21.668300000000009
10
-192.83199999999999
20
-22.267699999999987
10
-193.63200000000009
20
-22.267699999999987
10
-193.63200000000009
20
-35.068300000000008
10
-192.83199999999999
20
-35.068300000000008
10
-192.83199999999999
20
-35.667599999999986
10
-178.83200000000005
20
-35.667599999999986
0
LWPOLYLINE
5
115
100
AcDbEntity
8
0
100
AcDbPolyline
90
12
70
1
43
0.0
10
-230.93199999999999
20
-22.267699999999987
10
-231.73200000000006
20
-22.267699999999987
10
-231.73200000000006
20
-35.068300000000008
10
-230.93199999999999
20
-35.068300000000008
10
-230.93199999999999
20
-35.667599999999986
10
-216.93200000000004
20
-35.667599999999986
10
-216.93200000000004
20
-35.068300000000008
10
-216.13100000000003
20
-35.068300000000008
10
-216.13100000000003
20
-22.267699999999987
10
-216.93200000000004
20
-22.267699999999987
10
-216.93200000000004
20
-21.668300000000009
10
-230.93199999999999
20
-21.668300000000009
0
LWPOLYLINE
5
116
100
AcDbEntity
8
0
100
AcDbPolyline
90
12
70
1
43
0.0
10
-64.532200000000003
20
-21.668300000000009
10
-78.53149999999998
20
-21.668300000000009
10
-78.53149999999998
20
-22.267699999999987
10
-79.332300000000004
20
-22.267699999999987
10
-79.332300000000004
20
-35.068300000000008
10
-78.53149999999998
20
-35.068300000000008
10
-78.53149999999998
20
-35.667599999999986
10
-64.532200000000003
20
-35.667599999999986
10
-64.532200000000003
20
-35.068300000000008
10
-63.731400000000008
20
-35.068300000000008
10
-63.731400000000008
20
-22.267699999999987
10
-64.532200000000003
20
-22.267699999999987
0
LWPOLYLINE
5
117
100
AcDbEntity
8
0
100
AcDbPolyline
90
12
70
1
43
0.0
10
-236.49500000000003
20
-60.367700000000006
10
-236.49500000000003
20
-73.168199999999999
10
-235.69400000000002
20
-73.168199999999999
10
-235.69400000000002
20
-73.767600000000016
10
-221.69499999999999
20
-73.767600000000016
10
-221.69499999999999
20
-73.168199999999999
10
-220.89500000000001
20
-73.168199999999999
10
-220.89500000000001
20
-60.367700000000006
10
-221.69499999999999
20
-60.367700000000006
10
-221.69499999999999
20
-59.768300000000004
10
-235.69400000000002
20
-59.768300000000004
10
-235.69400000000002
20
-60.367700000000006
0
LWPOLYLINE
5
118
100
AcDbEntity
8
0
100
AcDbPolyline
90
12
70
1
43
0.0
10
-78.819700000000026
20
-79.417700000000025
10
-78.819700000000026
20
-78.818299999999994
10
-92.819000000000003
20
-78.818299999999994
10
-92.819000000000003
20
-79.417700000000025
10
-93.618399999999994
20
-79.417700000000025
10
-93.618399999999994
20
-92.218199999999968
10
-92.819000000000003
20
-92.218199999999968
10
-92.819000000000003
20
-92.817600000000027
10
-78.819700000000026
20
-92.817600000000027
10
-78.819700000000026
20
-92.218199999999968
10
-78.020300000000006
20
-92.218199999999968
10
-78.020300000000006
20
-79.417700000000025
0
LWPOLYLINE
5
119
100
AcDbEntity
8
0
100
AcDbPolyline
90
12
70
1
43
0.0
10
-226.45700000000005
20
-54.118200000000023
10
-225.65600000000003
20
-54.118200000000023
10
-225.65600000000003
20
-41.317700000000002
10
-226.45700000000005
20
-41.317700000000002
10
-226.45700000000005
20
-40.718300000000013
10
-240.45700000000008
20
-40.718300000000013
10
-240.45700000000008
20
-41.317700000000002
10
-241.25700000000001
20
-41.317700000000002
10
-241.25700000000001
20
-54.118200000000023
10
-240.45700000000008
20
-54.118200000000023
10
-240.45700000000008
20
-54.717599999999997
10
-226.45700000000005
20
-54.717599999999997
0
CIRCLE
5
120
100
AcDbEntity
8
0
100
AcDbCircle
10
5.2049153633040879
20
-47.716895071195708
30
0
40
1.1499999999999844
0
CIRCLE
5
121
100
AcDbEntity
8
0
100
AcDbCircle
10
-291.14499996330414
20
-47.71689507119568
30
2.7755575615628914e-16
40
1.1499999999999844
0
LWPOLYLINE
5
122
100
AcDbEntity
8
0
100
AcDbPolyline
90
12
70
1
43
0.0
10
-23.762900000000002
20
-54.717599999999997
10
-5.0009100000000029
20
-54.717599999999997
10
-5.000910000000002
20
-54.118200000000023
10
-4.200280000000002
20
-54.118200000000023
10
-4.200280000000002
20
-41.317700000000002
10
-5.000910000000002
20
-41.317700000000002
10
-5.0009100000000029
20
-40.718300000000013
10
-23.762900000000002
20
-40.718300000000013
10
-23.762900000000002
20
-41.317700000000002
10
-24.562200000000001
20
-41.317700000000002
10
-24.562200000000001
20
-54.118200000000023
10
-23.762900000000002
20
-54.118200000000023
0
LWPOLYLINE
5
123
100
AcDbEntity
8
0
100
AcDbPolyline
90
12
70
1
43
0.0
10
-226.16900000000001
20
-78.818299999999994
10
-226.16900000000001
20
-79.417700000000025
10
-226.97000000000003
20
-79.417700000000025
10
-226.97000000000003
20
-92.218199999999968
10
-226.16900000000001
20
-92.218199999999968
10
-226.16900000000001
20
-92.817600000000027
10
-212.16999999999999
20
-92.817600000000027
10
-212.16999999999999
20
-92.218199999999968
10
-211.37
20
-92.218199999999968
10
-211.37
20
-79.417700000000025
10
-212.16999999999999
20
-79.417700000000025
10
-212.16999999999999
20
-78.818299999999994
0
LWPOLYLINE
5
124
100
AcDbEntity
8
0
100
AcDbPolyline
90
12
70
1
43
0.0
10
-30.395400000000009
20
-16.018299999999996
10
-30.395400000000009
20
-3.2177199999999928
10
-31.194700000000001
20
-3.2177199999999928
10
-31.194700000000001
20
-2.6182700000000025
10
-45.193999999999988
20
-2.6182700000000025
10
-45.193999999999988
20
-3.2177199999999928
10
-45.994799999999998
20
-3.2177199999999928
10
-45.994799999999998
20
-16.018299999999996
10
-45.193999999999988
20
-16.018299999999996
10
-45.193999999999988
20
-16.617800000000006
10
-31.194700000000001
20
-16.617800000000006
10
-31.194700000000001
20
-16.018299999999996
0
LWPOLYLINE
5
125
100
AcDbEntity
8
0
100
AcDbPolyline
90
12
70
1
43
0.0
10
-204.1930924103761
20
-1.6180000000000483
10
-204.19309241037612
20
-9.1171199999999963
10
-204.19300000000004
20
-9.1171199999999981
10
-204.19300000000004
20
-11.917299999999996
10
-204.19309241037612
20
-11.917299999999996
10
-204.19309241037612
20
-17.618012207030045
42
0.41421356237305734
10
-203.19309241037612
20
-18.618012207030059
10
-197.07432721077339
20
-18.618012207030045
42
0.41421352321833393
10
-196.07432734445609
20
-17.618012207030045
10
-196.07432734445615
20
-1.6180000000000478
42
0.41421356237309997
10
-197.07432734445604
20
-0.61800000000016453
10
-203.19309241037612
20
-0.61800000000005129
42
0.41421356237308427
0
LWPOLYLINE
5
126
100
AcDbEntity
8
0
100
AcDbPolyline
90
12
70
1
43
0.0
10
-231.22
20
-78.818299999999994
10
-245.21900000000002
20
-78.818299999999994
10
-245.21900000000002
20
-79.417700000000025
10
-246.02000000000004
20
-79.417700000000025
10
-246.02000000000004
20
-92.218199999999968
10
-245.21900000000002
20
-92.218199999999968
10
-245.21900000000002
20
-92.817600000000027
10
-231.22
20
-92.817600000000027
10
-231.22
20
-92.218199999999968
10
-230.42000000000002
20
-92.218199999999968
10
-230.42000000000002
20
-79.417700000000025
10
-231.22
20
-79.417700000000025
0
LWPOLYLINE
5
127
100
AcDbEntity
8
0
100
AcDbPolyline
90
12
70
1
43
0.0
10
-125.64399999999999
20
-73.168199999999999
10
-125.64399999999999
20
-60.367700000000006
10
-126.44500000000001
20
-60.367700000000006
10
-126.44500000000001
20
-59.768300000000004
10
-140.44400000000002
20
-59.768300000000004
10
-140.44400000000002
20
-60.367700000000006
10
-141.24500000000006
20
-60.367700000000006
10
-141.24500000000006
20
-73.168199999999999
10
-140.44400000000002
20
-73.168199999999999
10
-140.44400000000002
20
-73.767600000000016
10
-126.44500000000001
20
-73.767600000000016
10
-126.44500000000001
20
-73.168199999999999
0
LWPOLYLINE
5
128
100
AcDbEntity
8
0
100
AcDbPolyline
90
12
70
1
43
0.0
10
-45.994799999999998
20
-73.168199999999999
10
-45.193999999999988
20
-73.168199999999999
10
-45.193999999999988
20
-73.767600000000016
10
-31.194700000000001
20
-73.767600000000016
10
-31.194700000000001
20
-73.168199999999999
10
-30.395400000000009
20
-73.168199999999999
10
-30.395400000000009
20
-60.367700000000006
10
-31.194700000000001
20
-60.367700000000006
10
-31.194700000000001
20
-59.768300000000004
10
-45.193999999999988
20
-59.768300000000004
10
-45.193999999999988
20
-60.367700000000006
10
-45.994799999999998
20
-60.367700000000006
0
LWPOLYLINE
5
129
100
AcDbEntity
8
0
100
AcDbPolyline
90
12
70
1
43
0.0
10
-107.395
20
-73.168199999999999
10
-106.59500000000001
20
-73.168199999999999
10
-106.59500000000001
20
-60.367700000000006
10
-107.395
20
-60.367700000000006
10
-107.395
20
-59.768300000000004
10
-121.39400000000002
20
-59.768300000000004
10
-121.39400000000002
20
-60.367700000000006
10
-122.19499999999999
20
-60.367700000000006
10
-122.19499999999999
20
-73.168199999999999
10
-121.39400000000002
20
-73.168199999999999
10
-121.39400000000002
20
-73.767600000000016
10
-107.395
20
-73.767600000000016
0
CIRCLE
5
130
100
AcDbEntity
8
0
100
AcDbCircle
10
-142.97004230000005
20
-100.64239999999999
30
0
40
1.1500000000000021
0
LWPOLYLINE
5
131
100
AcDbEntity
8
0
100
AcDbPolyline
90
12
70
1
43
0.0
10
-74.569800000000001
20
-79.417700000000025
10
-74.569800000000001
20
-92.218199999999968
10
-73.768999999999977
20
-92.218199999999968
10
-73.768999999999977
20
-92.817600000000027
10
-59.769700000000007
20
-92.817600000000027
10
-59.769700000000007
20
-92.218199999999968
10
-58.970300000000009
20
-92.218199999999968
10
-58.970300000000009
20
-79.417700000000025
10
-59.769700000000007
20
-79.417700000000025
10
-59.769700000000007
20
-78.818299999999994
10
-73.768999999999977
20
-78.818299999999994
10
-73.768999999999977
20
-79.417700000000025
0
CIRCLE
5
132
100
AcDbEntity
8
0
100
AcDbCircle
10
-142.97004230000005
20
5.2076714000000068
30
0
40
1.1500000000000021
0
LWPOLYLINE
5
133
100
AcDbEntity
8
0
100
AcDbPolyline
90
12
70
1
43
0.0
10
-111.86900000000001
20
-78.818299999999994
10
-111.86900000000001
20
-79.417700000000025
10
-112.66800000000002
20
-79.417700000000025
10
-112.66800000000002
20
-92.218199999999968
10
-111.86900000000001
20
-92.218199999999968
10
-111.86900000000001
20
-92.817600000000027
10
-97.868300000000019
20
-92.817600000000027
10
-97.868300000000019
20
-92.218199999999968
10
-97.070300000000017
20
-92.218199999999968
10
-97.070300000000017
20
-79.417700000000025
10
-97.868300000000019
20
-79.417700000000025
10
-97.868300000000019
20
-78.818299999999994
0
LWPOLYLINE
5
134
100
AcDbEntity
8
0
100
AcDbPolyline
90
12
70
1
43
0.0
10
-155.53200000000001
20
-22.267699999999987
10
-155.53200000000001
20
-35.068300000000008
10
-154.732
20
-35.068300000000008
10
-154.732
20
-35.667599999999986
10
-140.73199999999997
20
-35.667599999999986
10
-140.73199999999997
20
-35.068300000000008
10
-139.93100000000004
20
-35.068300000000008
10
-139.93100000000004
20
-22.267699999999987
10
-140.73199999999997
20
-22.267699999999987
10
-140.73199999999997
20
-21.668300000000009
10
-154.732
20
-21.668300000000009
10
-154.732
20
-22.267699999999987
0
LWPOLYLINE
5
135
100
AcDbEntity
8
0
100
AcDbPolyline
90
12
70
1
43
0.0
10
-35.9572
20
-54.717599999999997
10
-35.9572
20
-54.118200000000023
10
-35.156500000000008
20
-54.118200000000023
10
-35.156500000000008
20
-41.317700000000002
10
-35.9572
20
-41.317700000000002
10
-35.9572
20
-40.718300000000013
10
-49.956499999999991
20
-40.718300000000013
10
-49.956499999999991
20
-41.317700000000002
10
-50.757300000000001
20
-41.317700000000002
10
-50.757300000000001
20
-54.118200000000023
10
-49.956499999999991
20
-54.118200000000023
10
-49.956499999999991
20
-54.717599999999997
0
CIRCLE
5
136
100
AcDbEntity
8
0
100
AcDbCircle
10
-242.97004229999999
20
-100.64239999999999
30
0
40
1.1499999999999844
0
LWPOLYLINE
5
137
100
AcDbEntity
8
0
100
AcDbPolyline
90
12
70
1
43
0.0
10
-88.0565
20
-41.317700000000002
10
-88.857300000000023
20
-41.317700000000002
10
-88.857300000000023
20
-54.118200000000023
10
-88.0565
20
-54.118200000000023
10
-88.0565
20
-54.717599999999997
10
-74.057200000000023
20
-54.717599999999997
10
-74.057200000000023
20
-54.118200000000023
10
-73.256399999999999
20
-54.118200000000023
10
-73.256399999999999
20
-41.317700000000002
10
-74.057200000000023
20
-41.317700000000002
10
-74.057200000000023
20
-40.718300000000013
10
-88.0565
20
-40.718300000000013
0
LWPOLYLINE
5
138
100
AcDbEntity
8
0
100
AcDbPolyline
90
12
70
1
43
0.0
10
-155.02000000000004
20
-78.818299999999994
10
-169.01900000000009
20
-78.818299999999994
10
-169.01900000000009
20
-79.417700000000025
10
-169.81999999999999
20
-79.417700000000025
10
-169.81999999999999
20
-92.218199999999968
10
-169.01900000000009
20
-92.218199999999968
10
-169.01900000000009
20
-92.817600000000027
10
-155.02000000000004
20
-92.817600000000027
10
-155.02000000000004
20
-92.218199999999968
10
-154.22000000000003
20
-92.218199999999968
10
-154.22000000000003
20
-79.417700000000025
10
-155.02000000000004
20
-79.417700000000025
0
LWPOLYLINE
5
139
100
AcDbEntity
8
0
100
AcDbPolyline
90
12
70
1
43
0.0
10
-160.29499999999999
20
-60.367700000000006
10
-160.29499999999999
20
-73.168199999999999
10
-159.49400000000003
20
-73.168199999999999
10
-159.49400000000003
20
-73.767600000000016
10
-145.495
20
-73.767600000000016
10
-145.495
20
-73.168199999999999
10
-144.69500000000005
20
-73.168199999999999
10
-144.69500000000005
20
-60.367700000000006
10
-145.495
20
-60.367700000000006
10
-145.495
20
-59.768300000000004
10
-159.49400000000003
20
-59.768300000000004
10
-159.49400000000003
20
-60.367700000000006
0
LWPOLYLINE
5
140
100
AcDbEntity
8
0
100
AcDbPolyline
90
12
70
1
43
0.0
10
-164.25700000000006
20
-41.317700000000002
10
-165.05700000000004
20
-41.317700000000002
10
-165.05700000000004
20
-54.118200000000023
10
-164.25700000000006
20
-54.118200000000023
10
-164.25700000000006
20
-54.717599999999997
10
-150.25699999999995
20
-54.717599999999997
10
-150.25699999999995
20
-54.118200000000023
10
-149.45600000000007
20
-54.118200000000023
10
-149.45600000000007
20
-41.317700000000002
10
-150.25699999999995
20
-41.317700000000002
10
-150.25699999999995
20
-40.718300000000013
10
-164.25700000000006
20
-40.718300000000013
0
LWPOLYLINE
5
141
100
AcDbEntity
8
0
100
AcDbPolyline
90
12
70
1
43
0.0
10
-69.294700000000006
20
-59.768300000000004
10
-83.293999999999983
20
-59.768300000000004
10
-83.293999999999983
20
-60.367700000000006
10
-84.094800000000006
20
-60.367700000000006
10
-84.094800000000006
20
-73.168199999999999
10
-83.293999999999983
20
-73.168199999999999
10
-83.293999999999983
20
-73.767600000000016
10
-69.294700000000006
20
-73.767600000000016
10
-69.294700000000006
20
-73.168199999999999
10
-68.4953
20
-73.168199999999999
10
-68.4953
20
-60.367700000000006
10
-69.294700000000006
20
-60.367700000000006
0
LWPOLYLINE
5
142
100
AcDbEntity
8
0
100
AcDbPolyline
90
12
70
1
43
0.0
10
-64.244
20
-73.168199999999999
10
-64.244
20
-73.767600000000016
10
-50.244700000000009
20
-73.767600000000016
10
-50.244700000000009
20
-73.168199999999999
10
-49.445300000000003
20
-73.168199999999999
10
-49.445300000000003
20
-60.367700000000006
10
-50.244700000000009
20
-60.367700000000006
10
-50.244700000000009
20
-59.768300000000004
10
-64.244
20
-59.768300000000004
10
-64.244
20
-60.367700000000006
10
-65.044799999999995
20
-60.367700000000006
10
-65.044799999999995
20
-73.168199999999999
0
LWPOLYLINE
5
143
100
AcDbEntity
8
0
100
AcDbPolyline
90
12
70
1
43
0.0
10
-240.745
20
-73.168199999999999
10
-239.94500000000002
20
-73.168199999999999
10
-239.94500000000002
20
-60.367700000000006
10
-240.745
20
-60.367700000000006
10
-240.745
20
-59.768300000000004
10
-254.74400000000003
20
-59.768300000000004
10
-254.74400000000003
20
-60.367700000000006
10
-255.54500000000004
20
-60.367700000000006
10
-255.54500000000004
20
-73.168199999999999
10
-254.74400000000003
20
-73.168199999999999
10
-254.74400000000003
20
-73.767600000000016
10
-240.745
20
-73.767600000000016
0
LWPOLYLINE
5
144
100
AcDbEntity
8
0
100
AcDbPolyline
90
12
70
1
43
0.0
10
-135.97000000000003
20
-2.6182700000000025
10
-149.96900000000005
20
-2.6182700000000025
10
-149.96900000000005
20
-3.2177199999999928
10
-150.77000000000004
20
-3.2177199999999928
10
-150.77000000000004
20
-16.018299999999996
10
-149.96900000000005
20
-16.018299999999996
10
-149.96900000000005
20
-16.617800000000006
10
-135.97000000000003
20
-16.617800000000006
10
-135.97000000000003
20
-16.018299999999996
10
-135.17000000000002
20
-16.018299999999996
10
-135.17000000000002
20
-3.2177199999999928
10
-135.97000000000003
20
-3.2177199999999928
0
LWPOLYLINE
5
145
100
AcDbEntity
8
0
100
AcDbPolyline
90
12
70
1
43
0.0
10
-197.59400000000005
20
-73.767600000000016
10
-183.59500000000003
20
-73.767600000000016
10
-183.59500000000003
20
-73.168199999999999
10
-182.79499999999999
20
-73.168199999999999
10
-182.79499999999999
20
-60.367700000000006
10
-183.59500000000003
20
-60.367700000000006
10
-183.59500000000003
20
-59.768300000000004
10
-197.59400000000005
20
-59.768300000000004
10
-197.59400000000005
20
-60.367700000000006
10
-198.39500000000001
20
-60.367700000000006
10
-198.39500000000001
20
-73.168199999999999
10
-197.59400000000005
20
-73.168199999999999
0
LWPOLYLINE
5
146
100
AcDbEntity
8
0
100
AcDbPolyline
90
12
70
1
43
0.0
10
-60.282300000000006
20
-35.068300000000008
10
-59.481499999999997
20
-35.068300000000008
10
-59.481499999999997
20
-35.667599999999986
10
-45.482199999999999
20
-35.667599999999986
10
-45.482199999999999
20
-35.068300000000008
10
-44.681399999999996
20
-35.068300000000008
10
-44.681399999999996
20
-22.267699999999987
10
-45.482199999999999
20
-22.267699999999987
10
-45.482199999999999
20
-21.668300000000009
10
-59.481499999999997
20
-21.668300000000009
10
-59.481499999999997
20
-22.267699999999987
10
-60.282300000000006
20
-22.267699999999987
0
LWPOLYLINE
5
147
100
AcDbEntity
8
0
100
AcDbPolyline
90
12
70
1
43
0.0
10
-116.119
20
-92.218199999999968
10
-116.119
20
-79.417700000000025
10
-116.91800000000001
20
-79.417700000000025
10
-116.91800000000001
20
-78.818299999999994
10
-130.91900000000004
20
-78.818299999999994
10
-130.91900000000004
20
-79.417700000000025
10
-131.72000000000003
20
-79.417700000000025
10
-131.72000000000003
20
-92.218199999999968
10
-130.91900000000004
20
-92.218199999999968
10
-130.91900000000004
20
-92.817600000000027
10
-116.91800000000001
20
-92.817600000000027
10
-116.91800000000001
20
-92.218199999999968
0
LWPOLYLINE
5
148
100
AcDbEntity
8
0
100
AcDbPolyline
90
12
70
1
43
0.0
10
-55.519800000000004
20
-92.218199999999968
10
-54.719000000000008
20
-92.218199999999968
10
-54.719000000000008
20
-92.817600000000027
10
-40.719700000000003
20
-92.817600000000027
10
-40.719700000000003
20
-92.218199999999968
10
-39.920299999999997
20
-92.218199999999968
10
-39.920299999999997
20
-79.417700000000025
10
-40.719700000000003
20
-79.417700000000025
10
-40.719700000000003
20
-78.818299999999994
10
-54.719000000000008
20
-78.818299999999994
10
-54.719000000000008
20
-79.417700000000025
10
-55.519800000000004
20
-79.417700000000025
0
LWPOLYLINE
5
149
100
AcDbEntity
8
0
100
AcDbPolyline
90
12
70
1
43
0.0
10
-240.745
20
-2.6182700000000025
10
-254.74400000000003
20
-2.6182700000000025
10
-254.74400000000003
20
-3.2177199999999928
10
-255.54500000000004
20
-3.2177199999999928
10
-255.54500000000004
20
-16.018299999999996
10
-254.74400000000003
20
-16.018299999999996
10
-254.74400000000003
20
-16.617800000000006
10
-240.745
20
-16.617800000000006
10
-240.745
20
-16.018299999999996
10
-239.94500000000002
20
-16.018299999999996
10
-239.94500000000002
20
-3.2177199999999928
10
-240.745
20
-3.2177199999999928
0
LWPOLYLINE
5
150
100
AcDbEntity
8
0
100
AcDbPolyline
90
12
70
1
43
0.0
10
-216.64400000000001
20
-73.767600000000016
10
-202.64500000000004
20
-73.767600000000016
10
-202.64500000000004
20
-73.168199999999999
10
-201.845
20
-73.168199999999999
10
-201.845
20
-60.367700000000006
10
-202.64500000000004
20
-60.367700000000006
10
-202.64500000000004
20
-59.768300000000004
10
-216.64400000000001
20
-59.768300000000004
10
-216.64400000000001
20
-60.367700000000006
10
-217.44500000000002
20
-60.367700000000006
10
-217.44500000000002
20
-73.168199999999999
10
-216.64400000000001
20
-73.168199999999999
0
LWPOLYLINE
5
151
100
AcDbEntity
8
0
100
AcDbPolyline
90
12
70
1
43
0.0
10
-197.88200000000003
20
-22.267699999999987
10
-197.88200000000003
20
-21.668300000000009
10
-211.88200000000001
20
-21.668300000000009
10
-211.88200000000001
20
-22.267699999999987
10
-212.68200000000007
20
-22.267699999999987
10
-212.68200000000007
20
-35.068300000000008
10
-211.88200000000001
20
-35.068300000000008
10
-211.88200000000001
20
-35.667599999999986
10
-197.88200000000003
20
-35.667599999999986
10
-197.88200000000003
20
-35.068300000000008
10
-197.08100000000002
20
-35.068300000000008
10
-197.08100000000002
20
-22.267699999999987
0
LWPOLYLINE
5
152
100
AcDbEntity
8
0
100
AcDbPolyline
90
12
70
1
43
0.0
10
-207.11900000000011
20
-79.417700000000025
10
-207.92000000000002
20
-79.417700000000025
10
-207.92000000000002
20
-92.218199999999968
10
-207.11900000000011
20
-92.218199999999968
10
-207.11900000000011
20
-92.817600000000027
10
-193.12000000000012
20
-92.817600000000027
10
-193.12000000000012
20
-92.218199999999968
10
-192.31999999999999
20
-92.218199999999968
10
-192.31999999999999
20
-79.417700000000025
10
-193.12000000000012
20
-79.417700000000025
10
-193.12000000000012
20
-78.818299999999994
10
-207.11900000000011
20
-78.818299999999994
0
LWPOLYLINE
5
153
100
AcDbEntity
8
0
100
AcDbPolyline
90
12
70
1
43
0.0
10
-69.807299999999998
20
-41.317700000000002
10
-69.807299999999998
20
-54.118200000000023
10
-69.006500000000003
20
-54.118200000000023
10
-69.006500000000003
20
-54.717599999999997
10
-55.007200000000005
20
-54.717599999999997
10
-55.007200000000005
20
-54.118200000000023
10
-54.206400000000002
20
-54.118200000000023
10
-54.206400000000002
20
-41.317700000000002
10
-55.007200000000005
20
-41.317700000000002
10
-55.007200000000005
20
-40.718300000000013
10
-69.006500000000003
20
-40.718300000000013
10
-69.006500000000003
20
-41.317700000000002
0
LWPOLYLINE
5
154
100
AcDbEntity
8
0
100
AcDbPolyline
90
12
70
1
43
0.0
10
-87.545300000000026
20
-73.168199999999999
10
-87.545300000000026
20
-60.367700000000006
10
-88.344700000000017
20
-60.367700000000006
10
-88.344700000000017
20
-59.768300000000004
10
-102.34400000000001
20
-59.768300000000004
10
-102.34400000000001
20
-60.367700000000006
10
-103.14500000000001
20
-60.367700000000006
10
-103.14500000000001
20
-73.168199999999999
10
-102.34400000000001
20
-73.168199999999999
10
-102.34400000000001
20
-73.767600000000016
10
-88.344700000000017
20
-73.767600000000016
10
-88.344700000000017
20
-73.168199999999999
0
LWPOLYLINE
5
155
100
AcDbEntity
8
0
100
AcDbPolyline
90
12
70
1
43
0.0
10
-112.157
20
-54.118200000000023
10
-111.35600000000004
20
-54.118200000000023
10
-111.35600000000004
20
-41.317700000000002
10
-112.157
20
-41.317700000000002
10
-112.157
20
-40.718300000000013
10
-126.15700000000004
20
-40.718300000000013
10
-126.15700000000004
20
-41.317700000000002
10
-126.95700000000001
20
-41.317700000000002
10
-126.95700000000001
20
-54.118200000000023
10
-126.15700000000004
20
-54.118200000000023
10
-126.15700000000004
20
-54.717599999999997
10
-112.157
20
-54.717599999999997
0
LWPOLYLINE
5
156
100
AcDbEntity
8
0
100
AcDbPolyline
90
12
70
1
43
0.0
10
-35.669000000000011
20
-92.218199999999968
10
-35.669000000000011
20
-92.817600000000027
10
-21.669699999999999
20
-92.817600000000027
10
-21.669699999999999
20
-92.218199999999968
10
-20.8704
20
-92.218199999999968
10
-20.8704
20
-79.417700000000025
10
-21.669699999999999
20
-79.417700000000025
10
-21.669699999999999
20
-78.818299999999994
10
-35.669000000000011
20
-78.818299999999994
10
-35.669000000000011
20
-79.417700000000025
10
-36.469799999999999
20
-79.417700000000025
10
-36.469799999999999
20
-92.218199999999968
0
LWPOLYLINE
5
157
100
AcDbEntity
8
0
100
AcDbPolyline
90
12
70
1
43
0.0
10
-159.78199999999995
20
-35.068300000000008
10
-158.98099999999997
20
-35.068300000000008
10
-158.98099999999997
20
-22.267699999999987
10
-159.78199999999995
20
-22.267699999999987
10
-159.78199999999995
20
-21.668300000000009
10
-173.78200000000007
20
-21.668300000000009
10
-173.78200000000007
20
-22.267699999999987
10
-174.58200000000005
20
-22.267699999999987
10
-174.58200000000005
20
-35.068300000000008
10
-173.78200000000007
20
-35.068300000000008
10
-173.78200000000007
20
-35.667599999999986
10
-159.78199999999995
20
-35.667599999999986
0
LWPOLYLINE
5
158
100
AcDbEntity
8
0
100
AcDbPolyline
90
12
70
1
43
0.0
10
-16.619200000000006
20
-79.417700000000025
10
-17.419799999999999
20
-79.417700000000025
10
-17.419799999999999
20
-92.218199999999968
10
-16.619200000000006
20
-92.218199999999968
10
-16.619200000000006
20
-92.817600000000027
10
-2.61965
20
-92.817600000000027
10
-2.61965
20
-92.218199999999968
10
-1.8203900000000008
20
-92.218199999999968
10
-1.8203900000000008
20
-79.417700000000025
10
-2.61965
20
-79.417700000000025
10
-2.61965
20
-78.818299999999994
10
-16.619200000000006
20
-78.818299999999994
0
LWPOLYLINE
5
159
100
AcDbEntity
8
0
100
AcDbPolyline
90
12
70
1
43
0.0
10
-206.60600000000002
20
-54.118200000000023
10
-206.60600000000002
20
-41.317700000000002
10
-207.40700000000004
20
-41.317700000000002
10
-207.40700000000004
20
-40.718300000000013
10
-221.40700000000007
20
-40.718300000000013
10
-221.40700000000007
20
-41.317700000000002
10
-222.20699999999999
20
-41.317700000000002
10
-222.20699999999999
20
-54.118200000000023
10
-221.40700000000007
20
-54.118200000000023
10
-221.40700000000007
20
-54.717599999999997
10
-207.40700000000004
20
-54.717599999999997
10
-207.40700000000004
20
-54.118200000000023
0
CIRCLE
5
160
100
AcDbEntity
8
0
100
AcDbCircle
10
-42.970042300000053
20
-100.64239999999999
30
0
40
1.1500000000000021
0
CIRCLE
5
161
100
AcDbEntity
8
0
100
AcDbCircle
10
-42.970042300000017
20
5.2076714000000068
30
0
40
1.1500000000000021
0
LWPOLYLINE
5
162
100
AcDbEntity
8
0
100
AcDbPolyline
90
12
70
1
43
0.0
10
-202.35700000000006
20
-54.717599999999997
10
-188.35700000000003
20
-54.717599999999997
10
-188.35700000000003
20
-54.118200000000023
10
-187.55600000000001
20
-54.118200000000023
10
-187.55600000000001
20
-41.317700000000002
10
-188.35700000000003
20
-41.317700000000002
10
-188.35700000000003
20
-40.718300000000013
10
-202.35700000000006
20
-40.718300000000013
10
-202.35700000000006
20
-41.317700000000002
10
-203.15700000000007
20
-41.317700000000002
10
-203.15700000000007
20
-54.118200000000023
10
-202.35700000000006
20
-54.118200000000023
0
LWPOLYLINE
5
163
100
AcDbEntity
8
0
100
AcDbPolyline
90
12
70
1
43
0.0
10
-188.0690000000001
20
-78.818299999999994
10
-188.0690000000001
20
-79.417700000000025
10
-188.87
20
-79.417700000000025
10
-188.87
20
-92.218199999999968
10
-188.0690000000001
20
-92.218199999999968
10
-188.0690000000001
20
-92.817600000000027
10
-174.07000000000008
20
-92.817600000000027
10
-174.07000000000008
20
-92.218199999999968
10
-173.27000000000004
20
-92.218199999999968
10
-173.27000000000004
20
-79.417700000000025
10
-174.07000000000008
20
-79.417700000000025
10
-174.07000000000008
20
-78.818299999999994
0
LWPOLYLINE
5
164
100
AcDbEntity
8
0
100
AcDbPolyline
90
12
70
1
43
0.0
10
-130.40600000000006
20
-54.118200000000023
10
-130.40600000000006
20
-41.317700000000002
10
-131.20699999999997
20
-41.317700000000002
10
-131.20699999999997
20
-40.718300000000013
10
-145.20699999999999
20
-40.718300000000013
10
-145.20699999999999
20
-41.317700000000002
10
-146.00700000000001
20
-41.317700000000002
10
-146.00700000000001
20
-54.118200000000023
10
-145.20699999999999
20
-54.118200000000023
10
-145.20699999999999
20
-54.717599999999997
10
-131.20699999999997
20
-54.717599999999997
10
-131.20699999999997
20
-54.118200000000023
0
LWPOLYLINE
5
165
100
AcDbEntity
8
0
100
AcDbPolyline
90
12
70
1
43
0.0
10
-135.68200000000002
20
-35.667599999999986
10
-121.682
20
-35.667599999999986
10
-121.682
20
-35.068300000000008
10
-120.881
20
-35.068300000000008
10
-120.881
20
-22.267699999999987
10
-121.682
20
-22.267699999999987
10
-121.682
20
-21.668300000000009
10
-135.68200000000002
20
-21.668300000000009
10
-135.68200000000002
20
-22.267699999999987
10
-136.482
20
-22.267699999999987
10
-136.482
20
-35.068300000000008
10
-135.68200000000002
20
-35.068300000000008
0
LWPOLYLINE
5
166
100
AcDbEntity
8
0
100
AcDbPolyline
90
43
70
1
43
0.0
10
-243.12581713865006
20
-21.668300000000009
42
-0.4142135623730599
10
-244.12581713865009
20
-20.668300000000116
10
-244.12581713865009
20
-20.668018310540166
42
0.41421396338025707
10
-245.12581713865006
20
-19.66801774343034
10
-250.44870906785013
20
-19.668014724765658
42
0.41421396338056249
10
-251.44870906785016
20
-20.668014157655747
42
-0.41421356237309509
10
-252.44870906785019
20
-21.668014157655744
10
-265.65079882812006
20
-21.668006103510162
10
-267.09118345355824
20
-21.668009869563875
42
-0.41354471164067197
10
-268.08889931641005
20
-20.668012478208571
42
0.41421541119000249
10
-269.08889931641011
20
-19.668015092825428
10
-274.08889931641198
20
-19.668028165909334
42
0.41421356237669538
10
-275.08889670179508
20
-20.668030780526152
42
-0.41421356237309509
10
-276.08889931641187
20
-21.668033395142956
10
-282.3195671386701
20
-21.668049685951658
42
0.0055927267778322432
10
-282.34193604542418
20
-21.668300000000009
10
-283.31900000000007
20
-21.668300000000009
10
-283.31900000000007
20
-22.267699999999987
10
-284.12000000000006
20
-22.267699999999987
10
-284.12000000000006
20
-35.068300000000008
10
-283.31900000000007
20
-35.068300000000008
10
-283.31900000000007
20
-35.667599999999986
10
-282.34848851686621
20
-35.667599999999986
42
0.0072314789452065939
10
-282.31956713866998
20
-35.668018310550231
10
-276.08889931641158
20
-35.668018310540234
42
-0.41421356237349566
10
-275.08889931641016
20
-36.668018310540234
42
0.41420641154223864
10
-274.08889931641005
20
-37.667993896479892
10
-269.08889931641005
20
-37.667993896480084
42
0.414213562373134
10
-268.08889931641016
20
-36.66799389647997
42
-0.41420998707396828
10
-267.08889931641005
20
-35.668006103510166
10
-252.21289223633008
20
-35.668006103510059
42
-0.41421356242556556
10
-251.21289223625578
20
-36.668006103510166
42
0.41420998702122236
10
-250.21289223633011
20
-37.667993896480198
10
-245.21289223633011
20
-37.667993896480198
42
0.41421356237311585
10
-244.21289223632988
20
-36.66799389647997
10
-244.21289223632988
20
-36.667600000000022
42
-0.4142135623730977
10
-243.21289223632988
20
-35.667599999999986
10
-235.98200000000008
20
-35.667599999999986
10
-235.98200000000008
20
-35.068300000000008
10
-235.18100000000004
20
-35.068300000000008
10
-235.18100000000004
20
-22.267699999999987
10
-235.98200000000008
20
-22.267699999999987
10
-235.98200000000008
20
-21.668300000000009
0
LWPOLYLINE
5
167
100
AcDbEntity
8
0
100
AcDbPolyline
90
81
70
1
43
0.0
10
-27.615776180253604
20
-95.968060087847533
42
-0.019406915878912193
10
-27.872314846247534
20
-96.115018801815069
42
0.038114164726617564
10
-28.334388017567356
20
-96.536888188976363
42
-0.20691393242675618
10
-30.891444244769481
20
-97.642399999999981
10
-31.267624558646652
20
-97.642400000000009
42
0.19891236737965853
10
-34.173833429323352
20
-98.846191129323273
10
-37.854119136320826
20
-102.52647683632071
42
-0.19891236737965984
10
-40.548195972641551
20
-103.64239999999995
10
-45.391888627358568
20
-103.64239999999995
42
-0.19891236737965096
10
-48.085965463679315
20
-102.5264768363207
10
-51.854119136320769
20
-98.758323163679265
42
0.19891236737966611
10
-54.548195972641516
20
-97.642400000000009
10
-131.39188862735858
20
-97.642400000000009
42
0.19891236737965923
10
-134.08596546367932
20
-98.75832316367925
10
-137.85411913632083
20
-102.52647683632071
42
-0.19891236737964921
10
-140.54819597264157
20
-103.64239999999995
10
-145.39188862735858
20
-103.64239999999995
42
-0.19891236737965018
10
-148.08596546367932
20
-102.5264768363207
10
-151.85411913632078
20
-98.758323163679222
42
0.19891236737966
10
-154.54819597264151
20
-97.642399999999995
10
-231.39188862735858
20
-97.642399999999995
42
0.19891236737965798
10
-234.08596546367932
20
-98.75832316367925
10
-237.85411913632078
20
-102.52647683632071
42
-0.19891236737965293
10
-240.54819597264154
20
-103.64239999999995
10
-245.39188862735855
20
-103.64239999999995
42
-0.19891236737965234
10
-248.08596546367926
20
-102.5264768363207
10
-251.85411913632078
20
-98.75832316367925
42
0.1989123673796663
10
-254.54819597264151
20
-97.642399999999995
10
-284.33500000000009
20
-97.642399999999995
42
-0.41421356237309509
10
-288.1450000000001
20
-93.832399999999993
10
-288.1450000000001
20
-59.295517972641456
42
0.19891236737965681
10
-289.26092316367937
20
-56.601441136320723
10
-293.02907676292921
20
-52.833287537070944
42
-0.19891236737967266
10
-294.14499992660842
20
-50.139210700750134
10
-294.14499992660831
20
-45.294579441641261
42
-0.1989123673796579
10
-293.02907676292909
20
-42.600502605320557
10
-289.26092316367937
20
-38.832349006070842
42
0.19891236737966503
10
-288.1450000000001
20
-36.138272169750067
10
-288.1450000000001
20
-1.6023285999999717
42
-0.41421356237309465
10
-284.33500000000009
20
2.2076714000000313
10
-254.54819597264157
20
2.2076714000000197
42
0.19891236737965134
10
-251.8541191363208
20
3.3235945636792694
10
-248.08596546367932
20
7.0917482363207487
42
-0.19891236737965165
10
-245.39188862735855
20
8.2076713999999935
10
-240.54819597264162
20
8.2076714000000184
42
-0.19891236737965617
10
-237.85411913632092
20
7.0917482363207895
10
-234.08596546367934
20
3.3235945636792463
42
0.19891236737965703
10
-231.39188862735864
20
2.2076714000000135
10
-154.54819597264157
20
2.2076714000000131
42
0.19891236737965598
10
-151.8541191363208
20
3.3235945636792694
10
-148.08596546367932
20
7.0917482363207496
42
-0.19891236737965662
10
-145.39188862735855
20
8.2076713999999935
10
-140.54819597264162
20
8.2076714000000131
42
-0.19891236737965962
10
-137.85411913632092
20
7.0917482363207718
10
-134.08596546367934
20
3.3235945636792499
42
0.19891236737965862
10
-131.39188862735861
20
2.2076714000000135
10
-54.548195972641551
20
2.2076714000000059
42
0.19891236737965801
10
-51.854119136320804
20
3.3235945636792517
10
-48.085965463679308
20
7.0917482363207611
42
-0.19891236737965648
10
-45.391888627358568
20
8.2076714000000113
10
-40.548195972641643
20
8.2076714000000219
42
-0.19891236737965617
10
-37.854119136320904
20
7.0917482363207895
10
-34.085965463679308
20
3.323594563679237
42
0.19891236737965634
10
-31.391888627358568
20
2.2076713999999957
10
-1.6050846000000265
20
2.2076714000000024
42
-0.41421356237309598
10
2.204915399999976
20
-1.602328600000007
10
2.2049153999999693
20
-36.138272169750117
42
0.19891236737965945
10
3.3208385636792404
20
-38.832349006070885
10
7.0889921629289514
20
-42.600502605320557
42
-0.19891236737965823
10
8.2049153266082193
20
-45.294579441641275
10
8.2049153266082868
20
-50.139210700750127
42
-0.19891236737965984
10
7.0889921629290464
20
-52.833287537070916
10
3.3208385636792128
20
-56.60144113632078
42
0.19891236737965609
10
2.2049153999999671
20
-59.29551797264152
10
2.2049153999999609
20
-93.832400000000007
42
-0.41421356237309509
10
-1.6050846000000418
20
-97.642400000000009
10
-6.1538123276060599
20
-97.642400000000009
42
-0.14928695613214843
10
-8.2823094499907981
20
-96.992399999999975
42
0.012224240250474876
10
-8.4392983610016277
20
-96.892146118400376
42
0.22843080938097921
10
-11.654450000000033
20
-95.342399999999969
10
-25.435988260161043
20
-95.342399999999984
42
0.14067396022346726
0
LWPOLYLINE
5
168
100
AcDbEntity
8
0
100
AcDbPolyline
90
81
70
1
43
0.0
10
-37.854119136320826
20
-102.52647683632071
10
-34.173833429323352
20
-98.846191129323273
42
-0.19891236737965848
10
-31.267624558646652
20
-97.642400000000009
10
-30.891444244769481
20
-97.642399999999981
42
0.2069139324267619
10
-28.334388017567367
20
-96.536888188976334
42
-0.038114164726616634
10
-27.87231484624753
20
-96.115018801815069
42
0.019406915878889687
10
-27.615776180253604
20
-95.968060087847547
42
-0.14067396022346496
10
-25.435988260161047
20
-95.342399999999984
10
-11.654450000000033
20
-95.342399999999955
42
-0.22843080938098081
10
-8.4392983610016259
20
-96.892146118400348
42
-0.012224240250527693
10
-8.2823094499908017
20
-96.992399999999975
42
0.14928695613215687
10
-6.1538123276060617
20
-97.642400000000009
10
-1.6050846000000416
20
-97.642400000000009
42
0.41421356237309476
10
2.2049153999999609
20
-93.832400000000007
10
2.2049153999999662
20
-59.29551797264152
42
-0.19891236737965731
10
3.3208385636792133
20
-56.60144113632078
10
7.0889921629290509
20
-52.833287537070916
42
0.19891236737965973
10
8.2049153266082904
20
-50.139210700750134
10
8.2049153266082282
20
-45.294579441641275
42
0.19891236737965851
10
7.0889921629289576
20
-42.600502605320557
10
3.3208385636792408
20
-38.832349006070885
42
-0.19891236737965962
10
2.2049153999999693
20
-36.138272169750117
10
2.2049153999999751
20
-1.6023285999999999
42
0.41421356237309565
10
-1.6050846000000263
20
2.2076714000000015
10
-31.391888627358568
20
2.2076714000000037
42
-0.19891236737965742
10
-34.085965463679315
20
3.3235945636792401
10
-37.854119136320904
20
7.0917482363207807
42
0.19891236737965634
10
-40.548195972641643
20
8.2076714000000166
10
-45.391888627358568
20
8.2076713999999953
42
0.19891236737965781
10
-48.085965463679301
20
7.0917482363207522
10
-51.854119136320804
20
3.3235945636792597
42
-0.19891236737965798
10
-54.548195972641551
20
2.2076714000000046
10
-131.39188862735861
20
2.2076714000000144
42
-0.1989123673796564
10
-134.08596546367934
20
3.3235945636792512
10
-137.85411913632092
20
7.0917482363207753
42
0.19891236737966125
10
-140.54819597264162
20
8.2076714000000166
10
-145.39188862735853
20
8.2076713999999988
42
0.19891236737965765
10
-148.08596546367932
20
7.0917482363207522
10
-151.8541191363208
20
3.3235945636792659
42
-0.1989123673796579
10
-154.54819597264157
20
2.2076714000000122
10
-231.39188862735864
20
2.2076714000000268
42
-0.19891236737965498
10
-234.08596546367934
20
3.3235945636792481
10
-237.85411913632092
20
7.0917482363207851
42
0.19891236737965723
10
-240.54819597264162
20
8.2076714000000131
10
-245.39188862735855
20
8.2076713999999953
42
0.19891236737964629
10
-248.08596546367932
20
7.0917482363207496
10
-251.8541191363208
20
3.3235945636792703
42
-0.19891236737965776
10
-254.54819597264157
20
2.2076714000000175
10
-284.33500000000009
20
2.207671400000025
42
0.41421356237309465
10
-288.1450000000001
20
-1.6023285999999715
10
-288.1450000000001
20
-36.13827216975006
42
-0.19891236737966123
10
-289.26092316367937
20
-38.832349006070842
10
-293.02907676292909
20
-42.600502605320536
42
0.1989123673796587
10
-294.14499992660836
20
-45.294579441641261
10
-294.14499992660842
20
-50.139210700750141
42
0.19891236737967644
10
-293.02907676292915
20
-52.833287537070923
10
-289.26092316367937
20
-56.601441136320716
42
-0.19891236737965695
10
-288.1450000000001
20
-59.295517972641456
10
-288.1450000000001
20
-93.832399999999993
42
0.41421356237309509
10
-284.33500000000009
20
-97.642399999999995
10
-254.54819597264151
20
-97.642399999999995
42
-0.19891236737965798
10
-251.85411913632078
20
-98.75832316367925
10
-248.08596546367926
20
-102.52647683632071
42
0.1989123673796547
10
-245.39188862735853
20
-103.64239999999997
10
-240.54819597264154
20
-103.64239999999997
42
0.1989123673796547
10
-237.85411913632078
20
-102.52647683632071
10
-234.08596546367932
20
-98.75832316367925
42
-0.19891236737965798
10
-231.39188862735858
20
-97.642399999999995
10
-154.54819597264151
20
-97.642399999999981
42
-0.19891236737965706
10
-151.85411913632078
20
-98.758323163679222
10
-148.08596546367934
20
-102.52647683632071
42
0.19891236737964799
10
-145.39188862735858
20
-103.64239999999997
10
-140.54819597264157
20
-103.64239999999995
42
0.19891236737965662
10
-137.85411913632083
20
-102.52647683632071
10
-134.08596546367932
20
-98.75832316367925
42
-0.19891236737965706
10
-131.39188862735858
20
-97.642400000000009
10
-54.548195972641508
20
-97.642400000000009
42
-0.19891236737965798
10
-51.854119136320762
20
-98.758323163679265
10
-48.085965463679337
20
-102.5264768363207
42
0.1989123673796562
10
-45.391888627358561
20
-103.64239999999997
10
-40.548195972641551
20
-103.64239999999995
42
0.19891236737965892
0
LWPOLYLINE
5
169
100
AcDbEntity
8
0
100
AcDbPolyline
90
54
70
1
43
0.0
10
-280.97112248400668
20
-65.64929389648016
10
-278.55702441406015
20
-65.64929389648016
10
-278.55702441406015
20
-64.24260000000001
10
-280.93799999999999
20
-64.24260000000001
10
-280.93799999999999
20
-48.832923520223787
42
-0.38899433359401209
10
-281.85124438476032
20
-47.83669389648017
10
-281.85124438476032
20
-42.83669389648017
42
-0.41421356237310542
10
-280.85124438476032
20
-41.83669389648017
10
-280.04997991227265
20
-41.836693896480163
10
-280.04997991227259
20
-41.836650485504819
10
-279.85124438476026
20
-41.836693896480163
10
-279.85146829964583
20
-39.72101084127609
42
-0.41421356237308593
10
-278.85166903322943
20
-38.720810147978717
10
-273.85166913394409
20
-38.719806580775675
42
-0.41421356237312501
10
-272.85146844064627
20
-39.719605847192121
42
0.39817337142952619
10
-271.9063137165133
20
-40.7179
10
-271.41300000000007
20
-40.7179
10
-271.41300000000001
20
-40.718300000000013
10
-256.97526782226026
20
-40.718300000000013
10
-256.97526782226026
20
-40.717912207030068
42
0.41421356237307944
10
-255.97526782226038
20
-39.717912207030153
42
-0.41421356237312362
10
-254.97526782226009
20
-38.717912207030153
10
-249.97526782226009
20
-38.717912207030352
42
-0.41421356237308726
10
-248.97526782226012
20
-39.717912207030167
42
0.4142135623730977
10
-247.97526782226018
20
-40.717912207030096
10
-247.97526782226018
20
-40.718300000000013
10
-245.50700000000009
20
-40.718300000000013
10
-245.50700000000009
20
-41.317700000000002
10
-244.70600000000005
20
-41.317700000000002
10
-244.70600000000005
20
-54.118200000000023
10
-245.50700000000009
20
-54.118200000000023
10
-245.50700000000009
20
-54.717599999999997
10
-246.47917166699781
20
-54.717599999999997
42
-0.0069626734303569774
10
-246.50701831054008
20
-54.717987792969971
10
-247.97526782226018
20
-54.717987792969922
42
0.4142135623730977
10
-248.97526782226015
20
-55.717987792969851
42
-0.41421356237308204
10
-249.97526782226009
20
-56.717987792969609
10
-254.97526782226009
20
-56.717987792969865
42
-0.41421356237312362
10
-255.97526782226038
20
-55.717987792969865
42
0.41421356237307944
10
-256.97526782226026
20
-54.717987792969893
10
-263.55702441405975
20
-54.717987792969858
42
0.41421356237305079
10
-264.55702441405981
20
-55.717987792969851
10
-264.55702441405981
20
-59.768300000000004
10
-264.55700000000007
20
-59.768300000000004
10
-264.55700000000007
20
-60.367700000000006
10
-263.75599999999997
20
-60.367700000000006
10
-263.75599999999997
20
-73.168199999999999
10
-264.55700000000007
20
-73.168199999999999
10
-264.55700000000007
20
-73.767600000000016
10
-265.52852806166135
20
-73.767600000000016
42
-0.007125173202157129
10
-265.55702441405975
20
-73.768006103510061
10
-280.97112248400668
20
-73.768006103510146
42
-0.41421356237311846
10
-281.97112248400674
20
-72.76800610351016
10
-281.97112248400674
20
-66.64929389648016
42
-0.41421356237310542
0
LWPOLYLINE
5
170
100
AcDbEntity
8
0
100
AcDbPolyline
90
12
70
1
43
0.0
10
-149.96900000000005
20
-2.6182700000000034
10
-135.97000000000003
20
-2.6182700000000025
10
-135.97000000000003
20
-3.2177199999999928
10
-135.17000000000002
20
-3.2177199999999928
10
-135.17000000000002
20
-16.018299999999996
10
-135.97000000000003
20
-16.018299999999996
10
-135.97000000000003
20
-16.617800000000006
10
-149.96900000000005
20
-16.617800000000006
10
-149.96900000000005
20
-16.018299999999996
10
-150.77000000000004
20
-16.018299999999996
10
-150.77000000000004
20
-3.2177199999999937
10
-149.96900000000005
20
-3.2177199999999937
0
LWPOLYLINE
5
171
100
AcDbEntity
8
0
100
AcDbPolyline
90
12
70
1
43
0.0
10
-204.19309241037612
20
-9.1171199999999981
10
-204.1930924103761
20
-1.6180000000000483
42
-0.41421356237307683
10
-203.19309241037612
20
-0.61800000000005118
10
-197.07432734445604
20
-0.61800000000016453
42
-0.41421356237309853
10
-196.07432734445615
20
-1.6180000000000483
10
-196.07432734445609
20
-17.618012207030045
42
-0.41421352321833393
10
-197.07432721077339
20
-18.618012207030045
10
-203.19309241037612
20
-18.618012207030059
42
-0.41421356237307422
10
-204.19309241037612
20
-17.618012207030045
10
-204.19309241037612
20
-11.917299999999996
10
-204.19300000000004
20
-11.917299999999994
10
-204.19300000000004
20
-9.1171199999999963
0
CIRCLE
5
172
100
AcDbEntity
8
0
100
AcDbCircle
10
-242.97004229999999
20
5.2076714000000068
30
0
40
1.1499999999999844
0
LWPOLYLINE
5
173
100
AcDbEntity
8
0
100
AcDbPolyline
90
12
70
1
43
0.0
10
-55.007200000000012
20
-16.617800000000006
10
-69.006500000000017
20
-16.617800000000006
10
-69.006500000000017
20
-16.018299999999996
10
-69.807300000000012
20
-16.018299999999996
10
-69.807300000000012
20
-3.2177199999999937
10
-69.006500000000017
20
-3.2177199999999937
10
-69.006500000000017
20
-2.6182700000000034
10
-55.007200000000012
20
-2.6182700000000034
10
-55.007200000000012
20
-3.2177199999999937
10
-54.206400000000023
20
-3.2177199999999928
10
-54.206400000000023
20
-16.018299999999996
10
-55.007200000000012
20
-16.018299999999996
0
LWPOLYLINE
5
174
100
AcDbEntity
8
0
100
AcDbPolyline
90
12
70
1
43
0.0
10
-22.182300000000019
20
-73.168199999999999
10
-22.182300000000019
20
-60.367700000000006
10
-21.381699999999988
20
-60.367700000000006
10
-21.381699999999988
20
-59.768300000000004
10
-7.3821600000000132
20
-59.768300000000004
10
-7.3821600000000132
20
-60.367700000000006
10
-6.5815300000000221
20
-60.367700000000006
10
-6.5815300000000221
20
-73.168199999999999
10
-7.3821600000000132
20
-73.168199999999999
10
-7.3821599999999776
20
-73.767600000000016
10
-21.381699999999988
20
-73.767600000000016
10
-21.381699999999988
20
-73.168199999999999
0
LWPOLYLINE
5
175
100
AcDbEntity
8
0
100
AcDbPolyline
90
12
70
1
43
0.0
10
-98.382300000000015
20
-22.267699999999987
10
-97.581500000000005
20
-22.267699999999987
10
-97.581500000000005
20
-21.668300000000009
10
-83.5822
20
-21.668300000000009
10
-83.5822
20
-22.267699999999987
10
-82.781400000000005
20
-22.267699999999987
10
-82.781400000000005
20
-35.068300000000001
10
-83.5822
20
-35.068300000000001
10
-83.5822
20
-35.667599999999979
10
-97.581500000000005
20
-35.667599999999979
10
-97.581500000000005
20
-35.068300000000001
10
-98.382300000000015
20
-35.068300000000001
0
LWPOLYLINE
5
176
100
AcDbEntity
8
0
100
AcDbPolyline
90
12
70
1
43
0.0
10
-117.43200000000002
20
-35.068300000000001
10
-117.43200000000002
20
-22.267699999999987
10
-116.63200000000003
20
-22.267699999999987
10
-116.63200000000003
20
-21.668300000000009
10
-102.63200000000001
20
-21.668300000000009
10
-102.63200000000001
20
-22.267699999999987
10
-101.83100000000003
20
-22.267699999999987
10
-101.83100000000003
20
-35.068300000000001
10
-102.63200000000001
20
-35.068300000000001
10
-102.63200000000001
20
-35.667599999999979
10
-116.63200000000003
20
-35.667599999999979
10
-116.63200000000003
20
-35.068300000000001
0
LWPOLYLINE
5
177
100
AcDbEntity
8
0
100
AcDbPolyline
90
40
70
1
43
0.0
10
-6.0877785034104104
20
-20.66800000000006
10
-6.0877785034103837
20
-21.668300000000009
10
-5.0009100000000117
20
-21.668300000000009
10
-5.0009100000000117
20
-22.267699999999987
10
-4.2002799999999851
20
-22.267699999999987
10
-4.2002799999999851
20
-35.068300000000001
10
-5.0009100000000117
20
-35.068300000000001
10
-5.0009100000000117
20
-35.667599999999979
10
-5.837641421983796
20
-35.667599999999986
42
-0.040998566789614693
10
-6.0008110351504129
20
-35.681001967699565
10
-6.0877785034103837
20
-35.681001967699558
10
-6.0877785034103971
20
-36.681001967699558
42
-0.41421356237309509
10
-7.0877785034103979
20
-37.681001967699558
10
-12.087778503410394
20
-37.681001967699558
42
-0.4142135623730957
10
-13.087778503410396
20
-36.681001967699558
42
0.4142135623730937
10
-14.087778503410391
20
-35.681001967699558
10
-28.963755065910377
20
-35.681001967699558
42
0.41421356237308982
10
-29.963755065910341
20
-36.681001967699558
42
-0.41421356237309243
10
-30.963755065910341
20
-37.681001967699558
10
-35.963755065910334
20
-37.681001967699558
42
-0.41421356237308854
10
-36.963755065910327
20
-36.681001967699558
42
0.4142135623730977
10
-37.963755065910334
20
-35.681001967699558
10
-39.413116463340344
20
-35.681001967699572
42
-0.040998566789613583
10
-39.576286076506953
20
-35.667599999999986
10
-40.431500000000007
20
-35.667599999999979
10
-40.431500000000007
20
-35.068300000000001
10
-41.232299999999995
20
-35.068300000000001
10
-41.232299999999995
20
-22.267699999999987
10
-40.431500000000007
20
-22.267699999999987
10
-40.431500000000007
20
-21.668300000000009
10
-37.80964098939647
20
-21.668300000000013
42
0.36613543582021557
10
-36.963755065909822
20
-20.692343935399045
42
-0.42115695311440399
10
-35.96375506591032
20
-19.668000000000042
10
-30.963755065910341
20
-19.668000000000085
42
-0.41421356237309637
10
-29.96375506591037
20
-20.66800000000006
42
0.41421356237312101
10
-28.963755065910348
20
-21.668000000000092
10
-14.087778503410364
20
-21.66799999999995
42
0.41421356237308854
10
-13.087778503410341
20
-20.66800000000006
42
-0.41421356237312884
10
-12.087778503410398
20
-19.66800000000001
10
-7.0877785034104024
20
-19.66800000000007
42
-0.41421356237309637
0
LWPOLYLINE
5
178
100
AcDbEntity
8
0
100
AcDbPolyline
90
12
70
1
43
0.0
10
-135.97000000000003
20
-78.818300000000008
10
-135.97000000000003
20
-79.417700000000039
10
-135.17000000000002
20
-79.417700000000039
10
-135.17000000000002
20
-92.218199999999968
10
-135.97000000000003
20
-92.218199999999968
10
-135.97000000000003
20
-92.817600000000027
10
-149.96900000000005
20
-92.817600000000027
10
-149.96900000000005
20
-92.218199999999968
10
-150.77000000000004
20
-92.218199999999968
10
-150.77000000000004
20
-79.417700000000039
10
-149.96900000000005
20
-79.417700000000039
10
-149.96900000000005
20
-78.818300000000008
0
LWPOLYLINE
5
179
100
AcDbEntity
8
0
100
AcDbPolyline
90
12
70
1
43
0.0
10
-168.50599999999997
20
-41.317700000000002
10
-168.50599999999997
20
-54.118200000000023
10
-169.30700000000004
20
-54.118200000000023
10
-169.30700000000004
20
-54.717599999999997
10
-183.30700000000007
20
-54.717599999999997
10
-183.30700000000007
20
-54.118200000000023
10
-184.10700000000008
20
-54.118200000000023
10
-184.10700000000008
20
-41.317700000000002
10
-183.30700000000007
20
-41.317700000000002
10
-183.30700000000007
20
-40.718300000000013
10
-169.30700000000004
20
-40.718300000000013
10
-169.30700000000004
20
-41.317700000000002
0
LWPOLYLINE
5
180
100
AcDbEntity
8
0
100
AcDbPolyline
90
12
70
1
43
0.0
10
-107.10700000000004
20
-40.718300000000013
10
-93.10720000000002
20
-40.718300000000013
10
-93.10720000000002
20
-41.317700000000002
10
-92.306399999999996
20
-41.317700000000002
10
-92.306399999999996
20
-54.118200000000023
10
-93.10720000000002
20
-54.118200000000023
10
-93.10720000000002
20
-54.717599999999997
10
-107.10700000000004
20
-54.717599999999997
10
-107.10700000000004
20
-54.118200000000023
10
-107.90700000000001
20
-54.118200000000023
10
-107.90700000000001
20
-41.317700000000002
10
-107.10700000000004
20
-41.317700000000002
0
LWPOLYLINE
5
181
100
AcDbEntity
8
0
100
AcDbPolyline
90
12
70
1
43
0.0
10
-230.93199999999999
20
-16.617800000000006
10
-230.93199999999999
20
-16.018299999999996
10
-231.73200000000006
20
-16.018299999999996
10
-231.73200000000006
20
-3.2177199999999937
10
-230.93199999999999
20
-3.2177199999999937
10
-230.93199999999999
20
-2.6182700000000034
10
-216.93200000000004
20
-2.6182700000000034
10
-216.93200000000004
20
-3.2177199999999937
10
-216.13100000000003
20
-3.2177199999999928
10
-216.13100000000003
20
-16.018299999999996
10
-216.93200000000004
20
-16.018299999999996
10
-216.93200000000004
20
-16.617800000000006
0
LWPOLYLINE
5
182
100
AcDbEntity
8
0
100
AcDbPolyline
90
12
70
1
43
0.0
10
-179.345
20
-60.367700000000006
10
-178.54400000000004
20
-60.367700000000006
10
-178.54400000000004
20
-59.768300000000004
10
-164.54500000000007
20
-59.768300000000004
10
-164.54500000000007
20
-60.367700000000006
10
-163.74500000000009
20
-60.367700000000006
10
-163.74500000000009
20
-73.168199999999999
10
-164.54500000000007
20
-73.168199999999999
10
-164.54500000000007
20
-73.767600000000016
10
-178.54400000000004
20
-73.767600000000016
10
-178.54400000000004
20
-73.168199999999999
10
-179.345
20
-73.168199999999999
0
LWPOLYLINE
5
183
100
AcDbEntity
8
0
100
AcDbPolyline
90
12
70
1
43
0.0
10
-178.03100000000001
20
-35.068300000000001
10
-178.83200000000005
20
-35.068300000000001
10
-178.83200000000005
20
-35.667599999999979
10
-192.83199999999999
20
-35.667599999999979
10
-192.83199999999999
20
-35.068300000000001
10
-193.63200000000009
20
-35.068300000000001
10
-193.63200000000009
20
-22.267699999999987
10
-192.83199999999999
20
-22.267699999999987
10
-192.83199999999999
20
-21.668300000000009
10
-178.83200000000005
20
-21.668300000000009
10
-178.83200000000005
20
-22.267699999999987
10
-178.03100000000001
20
-22.267699999999987
0
LWPOLYLINE
5
184
100
AcDbEntity
8
0
100
AcDbPolyline
90
12
70
1
43
0.0
10
-231.73200000000006
20
-22.267699999999987
10
-230.93199999999999
20
-22.267699999999987
10
-230.93199999999999
20
-21.668300000000009
10
-216.93200000000004
20
-21.668300000000009
10
-216.93200000000004
20
-22.267699999999987
10
-216.13100000000003
20
-22.267699999999987
10
-216.13100000000003
20
-35.068300000000001
10
-216.93200000000004
20
-35.068300000000001
10
-216.93200000000004
20
-35.667599999999979
10
-230.93199999999999
20
-35.667599999999979
10
-230.93199999999999
20
-35.068300000000001
10
-231.73200000000006
20
-35.068300000000001
0
LWPOLYLINE
5
185
100
AcDbEntity
8
0
100
AcDbPolyline
90
12
70
1
43
0.0
10
-78.531499999999994
20
-21.668300000000009
10
-64.532200000000017
20
-21.668300000000009
10
-64.532200000000017
20
-22.267699999999987
10
-63.731400000000029
20
-22.267699999999987
10
-63.731400000000029
20
-35.068300000000001
10
-64.532200000000017
20
-35.068300000000001
10
-64.532200000000017
20
-35.667599999999979
10
-78.531499999999994
20
-35.667599999999979
10
-78.531499999999994
20
-35.068300000000001
10
-79.332300000000018
20
-35.068300000000001
10
-79.332300000000018
20
-22.267699999999987
10
-78.531499999999994
20
-22.267699999999987
0
LWPOLYLINE
5
186
100
AcDbEntity
8
0
100
AcDbPolyline
90
12
70
1
43
0.0
10
-236.49500000000003
20
-73.168199999999999
10
-236.49500000000003
20
-60.367700000000006
10
-235.69400000000002
20
-60.367700000000006
10
-235.69400000000002
20
-59.768300000000004
10
-221.69499999999999
20
-59.768300000000004
10
-221.69499999999999
20
-60.367700000000006
10
-220.89500000000001
20
-60.367700000000006
10
-220.89500000000001
20
-73.168199999999999
10
-221.69499999999999
20
-73.168199999999999
10
-221.69499999999999
20
-73.767600000000016
10
-235.69400000000002
20
-73.767600000000016
10
-235.69400000000002
20
-73.168199999999999
0
LWPOLYLINE
5
187
100
AcDbEntity
8
0
100
AcDbPolyline
90
12
70
1
43
0.0
10
-78.819700000000026
20
-78.818300000000008
10
-78.819700000000026
20
-79.417700000000039
10
-78.02030000000002
20
-79.417700000000039
10
-78.02030000000002
20
-92.218199999999968
10
-78.819700000000026
20
-92.218199999999968
10
-78.819700000000026
20
-92.817600000000027
10
-92.819000000000003
20
-92.817600000000027
10
-92.819000000000003
20
-92.218199999999968
10
-93.618399999999994
20
-92.218199999999968
10
-93.618399999999994
20
-79.417700000000039
10
-92.819000000000003
20
-79.417700000000039
10
-92.819000000000003
20
-78.818300000000008
0
LWPOLYLINE
5
188
100
AcDbEntity
8
0
100
AcDbPolyline
90
12
70
1
43
0.0
10
-225.65600000000003
20
-54.118200000000023
10
-226.45700000000005
20
-54.118200000000023
10
-226.45700000000005
20
-54.717599999999997
10
-240.45700000000008
20
-54.717599999999997
10
-240.45700000000008
20
-54.118200000000023
10
-241.25700000000001
20
-54.118200000000023
10
-241.25700000000001
20
-41.317700000000002
10
-240.45700000000008
20
-41.317700000000002
10
-240.45700000000008
20
-40.718300000000013
10
-226.45700000000005
20
-40.718300000000013
10
-226.45700000000005
20
-41.317700000000002
10
-225.65600000000003
20
-41.317700000000002
0
CIRCLE
5
189
100
AcDbEntity
8
0
100
AcDbCircle
10
5.2049153633040879
20
-47.716895071195708
30
0
40
1.1499999999999844
0
CIRCLE
5
190
100
AcDbEntity
8
0
100
AcDbCircle
10
-291.14499996330414
20
-47.71689507119568
30
0
40
1.1499999999999844
0
LWPOLYLINE
5
191
100
AcDbEntity
8
0
100
AcDbPolyline
90
12
70
1
43
0.0
10
-5.0009100000000117
20
-54.717599999999997
10
-23.762900000000009
20
-54.717599999999997
10
-23.762900000000009
20
-54.118200000000023
10
-24.562199999999983
20
-54.118200000000023
10
-24.562199999999983
20
-41.317700000000002
10
-23.762900000000009
20
-41.317700000000002
10
-23.762900000000009
20
-40.718300000000013
10
-5.0009100000000117
20
-40.718300000000013
10
-5.0009100000000117
20
-41.317700000000002
10
-4.2002799999999851
20
-41.317700000000002
10
-4.2002799999999851
20
-54.118200000000023
10
-5.0009100000000117
20
-54.118200000000023
0
LWPOLYLINE
5
192
100
AcDbEntity
8
0
100
AcDbPolyline
90
12
70
1
43
0.0
10
-226.16900000000001
20
-79.417700000000039
10
-226.16900000000001
20
-78.818300000000008
10
-212.16999999999999
20
-78.818300000000008
10
-212.16999999999999
20
-79.417700000000039
10
-211.37
20
-79.417700000000039
10
-211.37
20
-92.218199999999968
10
-212.16999999999999
20
-92.218199999999968
10
-212.16999999999999
20
-92.817600000000027
10
-226.16900000000001
20
-92.817600000000027
10
-226.16900000000001
20
-92.218199999999968
10
-226.97000000000003
20
-92.218199999999968
10
-226.97000000000003
20
-79.417700000000039
0
LWPOLYLINE
5
193
100
AcDbEntity
8
0
100
AcDbPolyline
90
12
70
1
43
0.0
10
-30.395400000000024
20
-3.2177199999999928
10
-30.395400000000024
20
-16.018299999999996
10
-31.194699999999997
20
-16.018299999999996
10
-31.194699999999997
20
-16.617800000000006
10
-45.19400000000001
20
-16.617800000000006
10
-45.19400000000001
20
-16.018299999999996
10
-45.994799999999998
20
-16.018299999999996
10
-45.994799999999998
20
-3.2177199999999937
10
-45.19400000000001
20
-3.2177199999999937
10
-45.19400000000001
20
-2.6182700000000034
10
-31.194699999999997
20
-2.6182700000000034
10
-31.194699999999997
20
-3.2177199999999937
0
LWPOLYLINE
5
194
100
AcDbEntity
8
0
100
AcDbPolyline
90
12
70
1
43
0.0
10
-245.21900000000002
20
-78.818300000000008
10
-231.22
20
-78.818300000000008
10
-231.22
20
-79.417700000000039
10
-230.42000000000002
20
-79.417700000000039
10
-230.42000000000002
20
-92.218199999999968
10
-231.22
20
-92.218199999999968
10
-231.22
20
-92.817600000000027
10
-245.21900000000002
20
-92.817600000000027
10
-245.21900000000002
20
-92.218199999999968
10
-246.02000000000004
20
-92.218199999999968
10
-246.02000000000004
20
-79.417700000000039
10
-245.21900000000002
20
-79.417700000000039
0
LWPOLYLINE
5
195
100
AcDbEntity
8
0
100
AcDbPolyline
90
12
70
1
43
0.0
10
-125.64399999999999
20
-60.367700000000006
10
-125.64399999999999
20
-73.168199999999999
10
-126.44500000000001
20
-73.168199999999999
10
-126.44500000000001
20
-73.767600000000016
10
-140.44400000000002
20
-73.767600000000016
10
-140.44400000000002
20
-73.168199999999999
10
-141.24500000000006
20
-73.168199999999999
10
-141.24500000000006
20
-60.367700000000006
10
-140.44400000000002
20
-60.367700000000006
10
-140.44400000000002
20
-59.768300000000004
10
-126.44500000000001
20
-59.768300000000004
10
-126.44500000000001
20
-60.367700000000006
0
LWPOLYLINE
5
196
100
AcDbEntity
8
0
100
AcDbPolyline
90
12
70
1
43
0.0
10
-45.19400000000001
20
-73.168199999999999
10
-45.994799999999998
20
-73.168199999999999
10
-45.994799999999998
20
-60.367700000000006
10
-45.19400000000001
20
-60.367700000000006
10
-45.19400000000001
20
-59.768300000000004
10
-31.194699999999997
20
-59.768300000000004
10
-31.194699999999997
20
-60.367700000000006
10
-30.395400000000024
20
-60.367700000000006
10
-30.395400000000024
20
-73.168199999999999
10
-31.194699999999997
20
-73.168199999999999
10
-31.194699999999997
20
-73.767600000000016
10
-45.19400000000001
20
-73.767600000000016
0
LWPOLYLINE
5
197
100
AcDbEntity
8
0
100
AcDbPolyline
90
36
70
1
43
0.0
10
-250.26949999999999
20
-77.817993896480061
10
-250.26949999999999
20
-79.417700000000025
10
-249.47000000000003
20
-79.417700000000039
10
-249.47000000000003
20
-92.218199999999968
10
-250.27000000000001
20
-92.218199999999968
10
-250.27000000000001
20
-92.817600000000027
10
-251.24143511436614
20
-92.817600000000027
42
-0.0070172579529339963
10
-251.26949999999999
20
-92.817993896480061
10
-251.35652392577992
20
-92.817993896480061
10
-251.35652392577987
20
-93.817993896480061
42
-0.41421356237310542
10
-252.3565239257799
20
-94.817993896480047
10
-257.35652392577992
20
-94.817993896480033
42
-0.41421356237310542
10
-258.35652392577992
20
-93.817993896480061
42
0.41421356237309509
10
-259.35652392577987
20
-92.817993896480061
10
-274.23250048828004
20
-92.817993896480061
42
0.414213562373069
10
-275.2325004882801
20
-93.817993896480061
42
-0.41421356237307422
10
-276.2325004882801
20
-94.817993896480047
10
-281.2325004882801
20
-94.817993896480061
42
-0.41421356237307422
10
-282.2325004882801
20
-93.817993896480061
10
-282.23250048828004
20
-92.817993896480061
10
-282.31956713866998
20
-92.817993896480019
42
-0.0070172579526224521
10
-282.34763202430264
20
-92.817600000000027
10
-283.31900000000007
20
-92.817600000000027
10
-283.31900000000007
20
-92.218199999999968
10
-284.12000000000006
20
-92.218199999999968
10
-284.12000000000006
20
-79.417700000000039
10
-283.31956713867015
20
-79.417700000000025
10
-283.31956713866998
20
-77.817993896480061
42
-0.41421356237310802
10
-282.31956713866998
20
-76.817993896480075
10
-276.2325004882801
20
-76.817993896480075
42
-0.41421356237307683
10
-275.2325004882801
20
-77.817993896480061
42
0.41421356237307161
10
-274.23250048828021
20
-78.817993896480104
10
-259.35652392577998
20
-78.817993896479962
42
0.41421356237309243
10
-258.35652392577992
20
-77.817993896480075
42
-0.41421356237314444
10
-257.3565239257801
20
-76.817993896480132
10
-251.26949999999997
20
-76.817993896480075
42
-0.4142135623730977
0
LWPOLYLINE
5
198
100
AcDbEntity
8
0
100
AcDbPolyline
90
12
70
1
43
0.0
10
-106.59500000000001
20
-73.168199999999999
10
-107.395
20
-73.168199999999999
10
-107.395
20
-73.767600000000016
10
-121.39400000000002
20
-73.767600000000016
10
-121.39400000000002
20
-73.168199999999999
10
-122.19499999999999
20
-73.168199999999999
10
-122.19499999999999
20
-60.367700000000006
10
-121.39400000000002
20
-60.367700000000006
10
-121.39400000000002
20
-59.768300000000004
10
-107.395
20
-59.768300000000004
10
-107.395
20
-60.367700000000006
10
-106.59500000000001
20
-60.367700000000006
0
CIRCLE
5
199
100
AcDbEntity
8
0
100
AcDbCircle
10
-142.97004230000005
20
-100.64239999999999
30
0
40
1.1500000000000021
0
LWPOLYLINE
5
200
100
AcDbEntity
8
0
100
AcDbPolyline
90
12
70
1
43
0.0
10
-74.569800000000015
20
-92.218199999999968
10
-74.569800000000015
20
-79.417700000000039
10
-73.768999999999991
20
-79.417700000000039
10
-73.768999999999991
20
-78.818300000000008
10
-59.769700000000014
20
-78.818300000000008
10
-59.769700000000014
20
-79.417700000000039
10
-58.970300000000009
20
-79.417700000000039
10
-58.970300000000009
20
-92.218199999999968
10
-59.769700000000014
20
-92.218199999999968
10
-59.769700000000014
20
-92.817600000000027
10
-73.768999999999991
20
-92.817600000000027
10
-73.768999999999991
20
-92.218199999999968
0
CIRCLE
5
201
100
AcDbEntity
8
0
100
AcDbCircle
10
-142.97004230000005
20
5.2076714000000068
30
0
40
1.1500000000000021
0
LWPOLYLINE
5
202
100
AcDbEntity
8
0
100
AcDbPolyline
90
12
70
1
43
0.0
10
-111.86900000000001
20
-79.417700000000039
10
-111.86900000000001
20
-78.818300000000008
10
-97.868300000000019
20
-78.818300000000008
10
-97.868300000000019
20
-79.417700000000039
10
-97.070300000000017
20
-79.417700000000039
10
-97.070300000000017
20
-92.218199999999968
10
-97.868300000000019
20
-92.218199999999968
10
-97.868300000000019
20
-92.817600000000027
10
-111.86900000000001
20
-92.817600000000027
10
-111.86900000000001
20
-92.218199999999968
10
-112.66800000000002
20
-92.218199999999968
10
-112.66800000000002
20
-79.417700000000039
0
LWPOLYLINE
5
203
100
AcDbEntity
8
0
100
AcDbPolyline
90
12
70
1
43
0.0
10
-155.53200000000001
20
-35.068300000000001
10
-155.53200000000001
20
-22.267699999999987
10
-154.732
20
-22.267699999999987
10
-154.732
20
-21.668300000000009
10
-140.73199999999997
20
-21.668300000000009
10
-140.73199999999997
20
-22.267699999999987
10
-139.93100000000004
20
-22.267699999999987
10
-139.93100000000004
20
-35.068300000000001
10
-140.73199999999997
20
-35.068300000000001
10
-140.73199999999997
20
-35.667599999999979
10
-154.732
20
-35.667599999999979
10
-154.732
20
-35.068300000000001
0
LWPOLYLINE
5
204
100
AcDbEntity
8
0
100
AcDbPolyline
90
12
70
1
43
0.0
10
-35.9572
20
-54.118200000000023
10
-35.9572
20
-54.717599999999997
10
-49.956500000000013
20
-54.717599999999997
10
-49.956500000000013
20
-54.118200000000023
10
-50.757300000000001
20
-54.118200000000023
10
-50.757300000000001
20
-41.317700000000002
10
-49.956500000000013
20
-41.317700000000002
10
-49.956500000000013
20
-40.718300000000013
10
-35.9572
20
-40.718300000000013
10
-35.9572
20
-41.317700000000002
10
-35.156500000000008
20
-41.317700000000002
10
-35.156500000000008
20
-54.118200000000023
0
CIRCLE
5
205
100
AcDbEntity
8
0
100
AcDbCircle
10
-242.97004229999999
20
-100.64239999999999
30
0
40
1.1499999999999844
0
LWPOLYLINE
5
206
100
AcDbEntity
8
0
100
AcDbPolyline
90
12
70
1
43
0.0
10
-88.857300000000023
20
-41.317700000000002
10
-88.0565
20
-41.317700000000002
10
-88.0565
20
-40.718300000000013
10
-74.057200000000023
20
-40.718300000000013
10
-74.057200000000023
20
-41.317700000000002
10
-73.256399999999999
20
-41.317700000000002
10
-73.256399999999999
20
-54.118200000000023
10
-74.057200000000023
20
-54.118200000000023
10
-74.057200000000023
20
-54.717599999999997
10
-88.0565
20
-54.717599999999997
10
-88.0565
20
-54.118200000000023
10
-88.857300000000023
20
-54.118200000000023
0
LWPOLYLINE
5
207
100
AcDbEntity
8
0
100
AcDbPolyline
90
12
70
1
43
0.0
10
-169.01900000000009
20
-78.818300000000008
10
-155.02000000000004
20
-78.818300000000008
10
-155.02000000000004
20
-79.417700000000039
10
-154.22000000000003
20
-79.417700000000039
10
-154.22000000000003
20
-92.218199999999968
10
-155.02000000000004
20
-92.218199999999968
10
-155.02000000000004
20
-92.817600000000027
10
-169.01900000000009
20
-92.817600000000027
10
-169.01900000000009
20
-92.218199999999968
10
-169.81999999999999
20
-92.218199999999968
10
-169.81999999999999
20
-79.417700000000039
10
-169.01900000000009
20
-79.417700000000039
0
LWPOLYLINE
5
208
100
AcDbEntity
8
0
100
AcDbPolyline
90
12
70
1
43
0.0
10
-160.29499999999999
20
-73.168199999999999
10
-160.29499999999999
20
-60.367700000000006
10
-159.49400000000003
20
-60.367700000000006
10
-159.49400000000003
20
-59.768300000000004
10
-145.495
20
-59.768300000000004
10
-145.495
20
-60.367700000000006
10
-144.69500000000005
20
-60.367700000000006
10
-144.69500000000005
20
-73.168199999999999
10
-145.495
20
-73.168199999999999
10
-145.495
20
-73.767600000000016
10
-159.49400000000003
20
-73.767600000000016
10
-159.49400000000003
20
-73.168199999999999
0
LWPOLYLINE
5
209
100
AcDbEntity
8
0
100
AcDbPolyline
90
12
70
1
43
0.0
10
-165.05700000000004
20
-41.317700000000002
10
-164.25700000000006
20
-41.317700000000002
10
-164.25700000000006
20
-40.718300000000013
10
-150.25699999999995
20
-40.718300000000013
10
-150.25699999999995
20
-41.317700000000002
10
-149.45600000000007
20
-41.317700000000002
10
-149.45600000000007
20
-54.118200000000023
10
-150.25699999999995
20
-54.118200000000023
10
-150.25699999999995
20
-54.717599999999997
10
-164.25700000000006
20
-54.717599999999997
10
-164.25700000000006
20
-54.118200000000023
10
-165.05700000000004
20
-54.118200000000023
0
LWPOLYLINE
5
210
100
AcDbEntity
8
0
100
AcDbPolyline
90
12
70
1
43
0.0
10
-83.293999999999954
20
-59.768300000000004
10
-69.29470000000002
20
-59.768300000000004
10
-69.29470000000002
20
-60.367700000000006
10
-68.495300000000015
20
-60.367700000000006
10
-68.495300000000015
20
-73.168199999999999
10
-69.29470000000002
20
-73.168199999999999
10
-69.29470000000002
20
-73.767600000000016
10
-83.293999999999954
20
-73.767600000000016
10
-83.293999999999954
20
-73.168199999999999
10
-84.094799999999992
20
-73.168199999999999
10
-84.094799999999992
20
-60.367700000000006
10
-83.293999999999954
20
-60.367700000000006
0
LWPOLYLINE
5
211
100
AcDbEntity
8
0
100
AcDbPolyline
90
12
70
1
43
0.0
10
-64.244000000000028
20
-73.767600000000016
10
-64.244000000000028
20
-73.168199999999999
10
-65.044800000000009
20
-73.168199999999999
10
-65.044800000000009
20
-60.367700000000006
10
-64.244000000000028
20
-60.367700000000006
10
-64.244000000000028
20
-59.768300000000004
10
-50.244700000000009
20
-59.768300000000004
10
-50.244700000000009
20
-60.367700000000006
10
-49.445300000000003
20
-60.367700000000006
10
-49.445300000000003
20
-73.168199999999999
10
-50.244700000000009
20
-73.168199999999999
10
-50.244700000000009
20
-73.767600000000016
0
LWPOLYLINE
5
212
100
AcDbEntity
8
0
100
AcDbPolyline
90
12
70
1
43
0.0
10
-239.94500000000002
20
-73.168199999999999
10
-240.745
20
-73.168199999999999
10
-240.745
20
-73.767600000000016
10
-254.74400000000003
20
-73.767600000000016
10
-254.74400000000003
20
-73.168199999999999
10
-255.54500000000004
20
-73.168199999999999
10
-255.54500000000004
20
-60.367700000000006
10
-254.74400000000003
20
-60.367700000000006
10
-254.74400000000003
20
-59.768300000000004
10
-240.745
20
-59.768300000000004
10
-240.745
20
-60.367700000000006
10
-239.94500000000002
20
-60.367700000000006
0
LWPOLYLINE
5
213
100
AcDbEntity
8
0
100
AcDbPolyline
90
12
70
1
43
0.0
10
-183.59500000000003
20
-73.767600000000016
10
-197.59400000000005
20
-73.767600000000016
10
-197.59400000000005
20
-73.168199999999999
10
-198.39500000000001
20
-73.168199999999999
10
-198.39500000000001
20
-60.367700000000006
10
-197.59400000000005
20
-60.367700000000006
10
-197.59400000000005
20
-59.768300000000004
10
-183.59500000000003
20
-59.768300000000004
10
-183.59500000000003
20
-60.367700000000006
10
-182.79499999999999
20
-60.367700000000006
10
-182.79499999999999
20
-73.168199999999999
10
-183.59500000000003
20
-73.168199999999999
0
LWPOLYLINE
5
214
100
AcDbEntity
8
0
100
AcDbPolyline
90
12
70
1
43
0.0
10
-59.481500000000018
20
-35.068300000000001
10
-60.282300000000006
20
-35.068300000000001
10
-60.282300000000006
20
-22.267699999999987
10
-59.481500000000018
20
-22.267699999999987
10
-59.481500000000018
20
-21.668300000000009
10
-45.482200000000006
20
-21.668300000000009
10
-45.482200000000006
20
-22.267699999999987
10
-44.681400000000018
20
-22.267699999999987
10
-44.681400000000018
20
-35.068300000000001
10
-45.482200000000006
20
-35.068300000000001
10
-45.482200000000006
20
-35.667599999999979
10
-59.481500000000018
20
-35.667599999999979
0
LWPOLYLINE
5
215
100
AcDbEntity
8
0
100
AcDbPolyline
90
12
70
1
43
0.0
10
-116.119
20
-79.417700000000039
10
-116.119
20
-92.218199999999968
10
-116.91800000000001
20
-92.218199999999968
10
-116.91800000000001
20
-92.817600000000027
10
-130.91900000000004
20
-92.817600000000027
10
-130.91900000000004
20
-92.218199999999968
10
-131.72000000000003
20
-92.218199999999968
10
-131.72000000000003
20
-79.417700000000039
10
-130.91900000000004
20
-79.417700000000039
10
-130.91900000000004
20
-78.818300000000008
10
-116.91800000000001
20
-78.818300000000008
10
-116.91800000000001
20
-79.417700000000039
0
LWPOLYLINE
5
216
100
AcDbEntity
8
0
100
AcDbPolyline
90
12
70
1
43
0.0
10
-54.719000000000015
20
-92.218199999999968
10
-55.519800000000004
20
-92.218199999999968
10
-55.519800000000004
20
-79.417700000000039
10
-54.719000000000015
20
-79.417700000000039
10
-54.719000000000015
20
-78.818300000000008
10
-40.719700000000003
20
-78.818300000000008
10
-40.719700000000003
20
-79.417700000000039
10
-39.920299999999997
20
-79.417700000000039
10
-39.920299999999997
20
-92.218199999999968
10
-40.719700000000003
20
-92.218199999999968
10
-40.719700000000003
20
-92.817600000000027
10
-54.719000000000015
20
-92.817600000000027
0
LWPOLYLINE
5
217
100
AcDbEntity
8
0
100
AcDbPolyline
90
12
70
1
43
0.0
10
-254.74400000000003
20
-2.6182700000000034
10
-240.745
20
-2.6182700000000034
10
-240.745
20
-3.2177199999999937
10
-239.94500000000002
20
-3.2177199999999928
10
-239.94500000000002
20
-16.018299999999996
10
-240.745
20
-16.018299999999996
10
-240.745
20
-16.617800000000006
10
-254.74400000000003
20
-16.617800000000006
10
-254.74400000000003
20
-16.018299999999996
10
-255.54500000000004
20
-16.018299999999996
10
-255.54500000000004
20
-3.2177199999999937
10
-254.74400000000003
20
-3.2177199999999937
0
LWPOLYLINE
5
218
100
AcDbEntity
8
0
100
AcDbPolyline
90
12
70
1
43
0.0
10
-202.64500000000004
20
-73.767600000000016
10
-216.64400000000001
20
-73.767600000000016
10
-216.64400000000001
20
-73.168199999999999
10
-217.44500000000002
20
-73.168199999999999
10
-217.44500000000002
20
-60.367700000000006
10
-216.64400000000001
20
-60.367700000000006
10
-216.64400000000001
20
-59.768300000000004
10
-202.64500000000004
20
-59.768300000000004
10
-202.64500000000004
20
-60.367700000000006
10
-201.845
20
-60.367700000000006
10
-201.845
20
-73.168199999999999
10
-202.64500000000004
20
-73.168199999999999
0
LWPOLYLINE
5
219
100
AcDbEntity
8
0
100
AcDbPolyline
90
12
70
1
43
0.0
10
-197.88200000000003
20
-21.668300000000009
10
-197.88200000000003
20
-22.267699999999987
10
-197.08100000000002
20
-22.267699999999987
10
-197.08100000000002
20
-35.068300000000001
10
-197.88200000000003
20
-35.068300000000001
10
-197.88200000000003
20
-35.667599999999979
10
-211.88200000000001
20
-35.667599999999979
10
-211.88200000000001
20
-35.068300000000001
10
-212.68200000000007
20
-35.068300000000001
10
-212.68200000000007
20
-22.267699999999987
10
-211.88200000000001
20
-22.267699999999987
10
-211.88200000000001
20
-21.668300000000009
0
LWPOLYLINE
5
220
100
AcDbEntity
8
0
100
AcDbPolyline
90
12
70
1
43
0.0
10
-207.92000000000002
20
-79.417700000000039
10
-207.11900000000011
20
-79.417700000000039
10
-207.11900000000011
20
-78.818300000000008
10
-193.12000000000012
20
-78.818300000000008
10
-193.12000000000012
20
-79.417700000000039
10
-192.31999999999999
20
-79.417700000000039
10
-192.31999999999999
20
-92.218199999999968
10
-193.12000000000012
20
-92.218199999999968
10
-193.12000000000012
20
-92.817600000000027
10
-207.11900000000011
20
-92.817600000000027
10
-207.11900000000011
20
-92.218199999999968
10
-207.92000000000002
20
-92.218199999999968
0
LWPOLYLINE
5
221
100
AcDbEntity
8
0
100
AcDbPolyline
90
12
70
1
43
0.0
10
-69.807300000000012
20
-54.118200000000023
10
-69.807300000000012
20
-41.317700000000002
10
-69.006500000000017
20
-41.317700000000002
10
-69.006500000000017
20
-40.718300000000013
10
-55.007200000000012
20
-40.718300000000013
10
-55.007200000000012
20
-41.317700000000002
10
-54.206400000000023
20
-41.317700000000002
10
-54.206400000000023
20
-54.118200000000023
10
-55.007200000000012
20
-54.118200000000023
10
-55.007200000000012
20
-54.717599999999997
10
-69.006500000000017
20
-54.717599999999997
10
-69.006500000000017
20
-54.118200000000023
0
LWPOLYLINE
5
222
100
AcDbEntity
8
0
100
AcDbPolyline
90
12
70
1
43
0.0
10
-81.851139150596296
20
-1.6152939959450474
10
-81.851139150596296
20
-9.1171199999999963
10
-81.850699999999989
20
-9.1171199999999981
10
-81.850699999999989
20
-11.917299999999994
10
-81.851139150596296
20
-11.917299999999996
10
-81.85113915059631
20
-17.615293995969061
42
-0.4142135623730937
10
-82.85113915059631
20
-18.615293995969061
10
-88.96993915059619
20
-18.615293995969054
42
-0.4142135623730937
10
-89.96993915059619
20
-17.615293995969061
10
-89.969939150596304
20
-1.6180000000000483
42
-0.41421356237310092
10
-88.969939150596304
20
-0.61800000000007616
10
-82.85113915059631
20
-0.61567411675927497
42
-0.41448242501512472
0
LWPOLYLINE
5
223
100
AcDbEntity
8
0
100
AcDbPolyline
90
12
70
1
43
0.0
10
-87.545300000000026
20
-60.367700000000006
10
-87.545300000000026
20
-73.168199999999999
10
-88.344700000000017
20
-73.168199999999999
10
-88.344700000000017
20
-73.767600000000016
10
-102.34400000000001
20
-73.767600000000016
10
-102.34400000000001
20
-73.168199999999999
10
-103.14500000000001
20
-73.168199999999999
10
-103.14500000000001
20
-60.367700000000006
10
-102.34400000000001
20
-60.367700000000006
10
-102.34400000000001
20
-59.768300000000004
10
-88.344700000000017
20
-59.768300000000004
10
-88.344700000000017
20
-60.367700000000006
0
LWPOLYLINE
5
224
100
AcDbEntity
8
0
100
AcDbPolyline
90
12
70
1
43
0.0
10
-111.35600000000004
20
-54.118200000000023
10
-112.157
20
-54.118200000000023
10
-112.157
20
-54.717599999999997
10
-126.15700000000004
20
-54.717599999999997
10
-126.15700000000004
20
-54.118200000000023
10
-126.95700000000001
20
-54.118200000000023
10
-126.95700000000001
20
-41.317700000000002
10
-126.15700000000004
20
-41.317700000000002
10
-126.15700000000004
20
-40.718300000000013
10
-112.157
20
-40.718300000000013
10
-112.157
20
-41.317700000000002
10
-111.35600000000004
20
-41.317700000000002
0
LWPOLYLINE
5
225
100
AcDbEntity
8
0
100
AcDbPolyline
90
12
70
1
43
0.0
10
-35.669000000000004
20
-92.817600000000027
10
-35.669000000000004
20
-92.218199999999968
10
-36.469799999999992
20
-92.218199999999968
10
-36.469799999999992
20
-79.417700000000039
10
-35.669000000000004
20
-79.417700000000039
10
-35.669000000000004
20
-78.818300000000008
10
-21.669699999999992
20
-78.818300000000008
10
-21.669699999999992
20
-79.417700000000039
10
-20.870399999999982
20
-79.417700000000039
10
-20.870399999999982
20
-92.218199999999968
10
-21.669699999999992
20
-92.218199999999968
10
-21.669699999999992
20
-92.817600000000027
0
LWPOLYLINE
5
226
100
AcDbEntity
8
0
100
AcDbPolyline
90
12
70
1
43
0.0
10
-158.98099999999997
20
-35.068300000000001
10
-159.78199999999995
20
-35.068300000000001
10
-159.78199999999995
20
-35.667599999999979
10
-173.78200000000007
20
-35.667599999999979
10
-173.78200000000007
20
-35.068300000000001
10
-174.58200000000005
20
-35.068300000000001
10
-174.58200000000005
20
-22.267699999999987
10
-173.78200000000007
20
-22.267699999999987
10
-173.78200000000007
20
-21.668300000000009
10
-159.78199999999995
20
-21.668300000000009
10
-159.78199999999995
20
-22.267699999999987
10
-158.98099999999997
20
-22.267699999999987
0
LWPOLYLINE
5
227
100
AcDbEntity
8
0
100
AcDbPolyline
90
12
70
1
43
0.0
10
-17.419800000000016
20
-79.417700000000039
10
-16.619200000000021
20
-79.417700000000039
10
-16.619200000000021
20
-78.818300000000008
10
-2.61965
20
-78.818300000000008
10
-2.61965
20
-79.417700000000039
10
-1.8203899999999962
20
-79.417700000000039
10
-1.8203899999999962
20
-92.218199999999968
10
-2.61965
20
-92.218199999999968
10
-2.61965
20
-92.817600000000027
10
-16.619200000000021
20
-92.817600000000027
10
-16.619200000000021
20
-92.218199999999968
10
-17.419800000000016
20
-92.218199999999968
0
LWPOLYLINE
5
228
100
AcDbEntity
8
0
100
AcDbPolyline
90
12
70
1
43
0.0
10
-206.60600000000002
20
-41.317700000000002
10
-206.60600000000002
20
-54.118200000000023
10
-207.40700000000004
20
-54.118200000000023
10
-207.40700000000004
20
-54.717599999999997
10
-221.40700000000007
20
-54.717599999999997
10
-221.40700000000007
20
-54.118200000000023
10
-222.20699999999999
20
-54.118200000000023
10
-222.20699999999999
20
-41.317700000000002
10
-221.40700000000007
20
-41.317700000000002
10
-221.40700000000007
20
-40.718300000000013
10
-207.40700000000004
20
-40.718300000000013
10
-207.40700000000004
20
-41.317700000000002
0
CIRCLE
5
229
100
AcDbEntity
8
0
100
AcDbCircle
10
-42.970042300000053
20
-100.64239999999999
30
0
40
1.1500000000000021
0
CIRCLE
5
230
100
AcDbEntity
8
0
100
AcDbCircle
10
-42.970042300000017
20
5.2076714000000068
30
0
40
1.1500000000000021
0
LWPOLYLINE
5
231
100
AcDbEntity
8
0
100
AcDbPolyline
90
12
70
1
43
0.0
10
-188.35700000000003
20
-54.717599999999997
10
-202.35700000000006
20
-54.717599999999997
10
-202.35700000000006
20
-54.118200000000023
10
-203.15700000000007
20
-54.118200000000023
10
-203.15700000000007
20
-41.317700000000002
10
-202.35700000000006
20
-41.317700000000002
10
-202.35700000000006
20
-40.718300000000013
10
-188.35700000000003
20
-40.718300000000013
10
-188.35700000000003
20
-41.317700000000002
10
-187.55600000000001
20
-41.317700000000002
10
-187.55600000000001
20
-54.118200000000023
10
-188.35700000000003
20
-54.118200000000023
0
LWPOLYLINE
5
232
100
AcDbEntity
8
0
100
AcDbPolyline
90
12
70
1
43
0.0
10
-188.0690000000001
20
-79.417700000000039
10
-188.0690000000001
20
-78.818300000000008
10
-174.07000000000008
20
-78.818300000000008
10
-174.07000000000008
20
-79.417700000000039
10
-173.27000000000004
20
-79.417700000000039
10
-173.27000000000004
20
-92.218199999999968
10
-174.07000000000008
20
-92.218199999999968
10
-174.07000000000008
20
-92.817600000000027
10
-188.0690000000001
20
-92.817600000000027
10
-188.0690000000001
20
-92.218199999999968
10
-188.87
20
-92.218199999999968
10
-188.87
20
-79.417700000000039
0
LWPOLYLINE
5
233
100
AcDbEntity
8
0
100
AcDbPolyline
90
12
70
1
43
0.0
10
-130.40600000000006
20
-41.317700000000002
10
-130.40600000000006
20
-54.118200000000023
10
-131.20699999999997
20
-54.118200000000023
10
-131.20699999999997
20
-54.717599999999997
10
-145.20699999999999
20
-54.717599999999997
10
-145.20699999999999
20
-54.118200000000023
10
-146.00700000000001
20
-54.118200000000023
10
-146.00700000000001
20
-41.317700000000002
10
-145.20699999999999
20
-41.317700000000002
10
-145.20699999999999
20
-40.718300000000013
10
-131.20699999999997
20
-40.718300000000013
10
-131.20699999999997
20
-41.317700000000002
0
LWPOLYLINE
5
234
100
AcDbEntity
8
0
100
AcDbPolyline
90
12
70
1
43
0.0
10
-121.682
20
-35.667599999999979
10
-135.68200000000002
20
-35.667599999999979
10
-135.68200000000002
20
-35.068300000000001
10
-136.482
20
-35.068300000000001
10
-136.482
20
-22.267699999999987
10
-135.68200000000002
20
-22.267699999999987
10
-135.68200000000002
20
-21.668300000000009
10
-121.682
20
-21.668300000000009
10
-121.682
20
-22.267699999999987
10
-120.881
20
-22.267699999999987
10
-120.881
20
-35.068300000000001
10
-121.682
20
-35.068300000000001
0
LWPOLYLINE
5
235
100
AcDbEntity
8
0
100
AcDbPolyline
90
43
70
1
43
0.0
10
-243.12581713865006
20
-21.668300000000023
42
-0.41421356237306384
10
-244.12581713865009
20
-20.668300000000116
10
-244.12581713865009
20
-20.668018310540166
42
0.41421396338027783
10
-245.12581713865006
20
-19.668017743430337
10
-250.44870906785013
20
-19.668014724765658
42
0.4142139633805586
10
-251.44870906785013
20
-20.668014157655747
42
-0.41421356237310414
10
-252.44870906785019
20
-21.668014157655744
10
-265.65079882812006
20
-21.668006103510162
10
-267.0911834535583
20
-21.668009869563882
42
-0.41354471164064338
10
-268.08889931641005
20
-20.668012478208571
42
0.4142154111900011
10
-269.08889931641011
20
-19.668015092825428
10
-274.08889931641198
20
-19.668028165909334
42
0.41421356237667456
10
-275.08889670179508
20
-20.668030780526152
42
-0.4142135623730781
10
-276.08889931641187
20
-21.668033395142956
10
-282.3195671386701
20
-21.668049685951658
42
0.0055927267778037026
10
-282.34193604542418
20
-21.668300000000013
10
-283.31900000000007
20
-21.668300000000009
10
-283.31900000000007
20
-22.267699999999987
10
-284.12000000000006
20
-22.267699999999987
10
-284.12000000000006
20
-35.068300000000001
10
-283.31900000000007
20
-35.068300000000001
10
-283.31900000000007
20
-35.667599999999979
10
-282.34848851686621
20
-35.667599999999986
42
0.0072314789453035268
10
-282.31956713866998
20
-35.668018310550231
10
-276.08889931641153
20
-35.668018310540234
42
-0.41421356237347612
10
-275.08889931641016
20
-36.668018310540234
42
0.41420641154225551
10
-274.08889931641005
20
-37.667993896479892
10
-269.08889931641005
20
-37.667993896480084
42
0.41421356237311457
10
-268.08889931641016
20
-36.66799389647997
42
-0.41420998707394879
10
-267.08889931641005
20
-35.668006103510166
10
-252.21289223633008
20
-35.668006103510045
42
-0.41421356242557988
10
-251.21289223625578
20
-36.668006103510166
42
0.41420998702122758
10
-250.21289223633011
20
-37.667993896480198
10
-245.21289223633011
20
-37.667993896480198
42
0.41421356237311197
10
-244.21289223632988
20
-36.66799389647997
10
-244.21289223632988
20
-36.667600000000022
42
-0.41421356237310542
10
-243.21289223632988
20
-35.667599999999979
10
-235.98200000000008
20
-35.667599999999979
10
-235.98200000000008
20
-35.068300000000001
10
-235.18100000000004
20
-35.068300000000001
10
-235.18100000000004
20
-22.267699999999987
10
-235.98200000000008
20
-22.267699999999987
10
-235.98200000000008
20
-21.668300000000009
0
ENDSEC
0
SECTION
2
OBJECTS
0
DICTIONARY
5
C
100
AcDbDictionary
3
ACAD_GROUP
350
D
3
ACAD_MLINESTYLE
350
17
0
DICTIONARY
5
D
100
AcDbDictionary
0
DICTIONARY
5
1A
330
C
100
AcDbDictionary
0
DICTIONARY
5
17
100
AcDbDictionary
0
ENDSEC
0
EOF
